<?xml version="1.0" standalone="no"?><!DOCTYPE svg PUBLIC "-//W3C//DTD SVG 1.1//EN" "http://www.w3.org/Graphics/SVG/1.1/DTD/svg11.dtd"><svg t="1617778753215" class="icon" viewBox="0 0 1024 1024" version="1.1" xmlns="http://www.w3.org/2000/svg" p-id="898" xmlns:xlink="http://www.w3.org/1999/xlink" width="200" height="200"><defs><style type="text/css"></style></defs><path d="M1012.297519 561.529003s-36.97919 12.388029-51.70153 94.389383-83.203178 202.114386-287.23586 119.673904c0 0-67.46391-76.708708-3.073895-177.107209 55.491897-86.485081 131.045005-105.205796 342.011285-36.956078z" fill="#40BF73" p-id="899"></path><path d="M717.134246 1024h-140.197355c25.839209-314.323117-205.257617-669.76247-205.257618-669.76247s328.167201 218.408342 345.454973 669.76247z" fill="#4CD392" p-id="900"></path><path d="M187.176226 146.137137c90.321672 3.212567 171.028755 14.005868 240.364737 32.148784 66.701214 17.472667 122.655351 41.740261 166.406355 72.086308 35.962262 25.007177 63.627319 54.336298 82.278699 87.201553a244.409335 244.409335 0 0 1-33.48928 283.052589 254.717284 254.717284 0 0 1-186.51379 81.284883c-8.089198 0-16.317068-0.392904-24.429378-1.1556a279.655126 279.655126 0 0 1-60.992551-12.850269c-99.381574-32.772807-163.471133-85.814833-195.596804-162.223085-34.228863-81.37733-26.856137-173.98709-14.653005-237.337065 11.047533-57.271521 19.783867-104.350652 26.625017-142.208098M71.385137 0S60.152708 76.570036 24.35223 262.113122c-39.082382 202.85397-0.670248 457.617478 303.044463 557.507516a417.079041 417.079041 0 0 0 91.407936 19.206067q18.836275 1.756512 37.372094 1.756512c220.580869 0 405.8235-183.763463 387.957929-413.265563-17.264659-221.482237-209.81068-413.70469-688.991649-420.638288C128.055746 4.137047 100.182682 1.918295 71.338913 0.046224z" fill="#4CD392" p-id="901"></path><path d="M617.174872 644.616621a254.832844 254.832844 0 0 1-88.126032 46.616891 1122.06419 1122.06419 0 0 1 34.922222 134.326909 393.2968 393.2968 0 0 0 108.811267-49.921907 870.097233 870.097233 0 0 0-55.607457-131.021893z" fill="#40BF73" p-id="902"></path></svg>