<?xml version="1.0" standalone="no"?><!DOCTYPE svg PUBLIC "-//W3C//DTD SVG 1.1//EN" "http://www.w3.org/Graphics/SVG/1.1/DTD/svg11.dtd"><svg t="1618025912630" class="icon" viewBox="0 0 1024 1024" version="1.1" xmlns="http://www.w3.org/2000/svg" p-id="7166" xmlns:xlink="http://www.w3.org/1999/xlink" width="200" height="200"><defs><style type="text/css"></style></defs><path d="M385.7 378.1c1.6-1.6 2.2-2.3 2.3-2.4-0.8 0.8-1.5 1.6-2.3 2.4z" fill="#8BCA58" p-id="7167"></path><path d="M693.5 498.7c-1.9-38.7-8.8-77.4-20.8-114.2-11.5-35.2-26.9-70.9-48.3-101.2-15.9-22.4-37-44.2-62.5-55 14.6-18.6 27.2-38.8 37.4-60 5.5-11.5 3.6-27-8.8-33.5-10.9-5.8-27.6-3.5-33.5 8.8-8.3 17.4-18.2 34-29.6 49.5-0.8 1-1.5 2-2.3 3.1-1.3 1.7-2.7 3.3-4 5-3.1 3.8-6.4 7.6-9.7 11.2-6.5 7.1-13.3 14-20.4 20.5-3.5 3.2-7 6.2-10.6 9.2l-5.1 4.2-1.8 1.5c-0.6 0.4-1.1 0.8-1.4 1-8.3 6.2-16.9 12-25.6 17.7-18 11.8-36.2 23.2-53.2 36.4-29.4 22.7-53.8 51.1-70.6 84.4-16.6 33-26.2 68.8-28.6 105.7-2.7 41.2 5.3 82.1 22.1 119.6 5.3 11.7 23.2 15.4 33.5 8.8 12.1-7.8 14.4-21 8.8-33.5-0.2-0.4-0.3-0.8-0.5-1.2-0.6-1.9-1.5-3.7-2.2-5.6-1.4-3.8-2.7-7.6-4-11.5-2.5-7.9-4.5-16-6.1-24.2-0.4-1.9-0.7-3.7-1-5.6-0.3-2-0.9-9.3-0.3-1.2-0.3-4-0.9-8-1.2-12.1-0.6-8.3-0.8-16.7-0.6-25 0.2-7.7 1-15.3 1.8-22.9 0.1-0.6 0.2-1.3 0.3-1.9 0.3-1.9 0.6-3.8 1-5.6 0.8-4.2 1.7-8.4 2.7-12.6 1.9-7.9 4.2-15.7 6.8-23.3 1.3-3.8 2.8-7.6 4.3-11.4 0-0.1 0.1-0.2 0.1-0.3 0.1-0.1 0.1-0.3 0.2-0.4 1-2.2 2-4.3 3-6.5 3.5-7.3 7.3-14.4 11.6-21.3 2.1-3.4 4.3-6.8 6.6-10.2 1.1-1.6 2.2-3.1 3.3-4.7l1.5-2.1-0.2 0.2 0.2-0.2 0.2-0.2c0.7-1 2.1-2.3 2.1-2.1 4.6-5.1 8.8-10.7 13.6-15.6 6.2-6.3 12.8-12.1 19.7-17.6 0.4-0.3 0.9-0.7 1.3-1 0.3-0.2 0.6-0.4 0.8-0.5l5.7-4.2c4.3-3.1 8.7-6.1 13.1-9.1 8.4-5.6 16.9-11.1 25.3-16.6 18-11.7 35.7-24 52-38.1 1-0.9 2-1.8 3.1-2.7 3.2-0.2 6.4 0 9.6 0.1h0.3c1.9 0.4 3.7 0.8 5.6 1.3 1.8 0.5 3.6 1.1 5.3 1.8 0.1 0 0.2 0.1 0.3 0.1 3.5 1.7 6.9 3.6 10.2 5.8 1.2 0.8 2.3 1.6 3.5 2.4l-0.5-0.5c0.3 0.3 0.6 0.6 1 0.8 0.1 0.1 0.3 0.2 0.4 0.3 0.4 0.3 0.8 0.7 1.1 0.9 2.9 2.4 5.7 5 8.3 7.7 2.6 2.6 5 5.2 7.4 8 1.4 1.6 2.7 3.2 4 4.8 0.5 0.6 0.9 1.2 1.5 1.8-0.2-0.2-0.4-0.5-0.6-0.7 0 0 0 0.1 0.1 0.1 10 13.6 18.2 28.5 25.7 43.6 1.8 3.7 3.6 7.4 5.3 11.2 0.9 1.9 1.7 3.8 2.5 5.7 0.4 1 0.9 2 1.3 3 0 0 0 0.1 0.1 0.1 3.3 8.2 6.5 16.5 9.3 24.9 5.7 16.8 10.3 33.9 13.8 51.3 0.9 4.3 1.7 8.7 2.4 13.1 0.3 2 0.7 4.1 1 6.1 0.1 0.9 0.3 1.7 0.4 2.6 0.4 9 2 18 2.6 27 2.4 38.2-1.9 76.1-6.2 114-5.1 44.9-10.2 89.9-15.3 134.8-0.7 5.8 3.2 13.4 7.2 17.3 4.2 4.2 11.2 7.4 17.3 7.2 14.5-0.7 22.9-10.8 24.5-24.5 4.7-41.6 9.5-83.3 14.2-124.9 4-39.9 9.1-79.4 7.2-119.1z" fill="#8BCA58" p-id="7168"></path><path d="M557.6 282c-0.1-0.1-0.3-0.2-0.4-0.3 2.3 2.2 2.5 2.1 1.9 1.5-0.2-0.2-0.5-0.4-0.7-0.6-0.3-0.2-0.5-0.4-0.8-0.6zM579.7 304.8c-0.9-1.2-3.2-3.7 0 0z" fill="#8BCA58" p-id="7169"></path><path d="M281.3 411c-101.4 0-184 82.5-184 184 0 101.6 82.6 184.1 184 184.1 101.6 0 184-82.5 184-184.1 0.2-101.5-82.3-184-184-184M443.8 753.6c0 100.2 87.7 181.7 195.5 181.7S835 853.8 835 753.6 747.3 572 639.5 572s-195.7 81.4-195.7 181.6" fill="#FA6078" p-id="7170"></path><path d="M176.3 539.2c-0.4-1.4-1.1-2.7-2.2-3.8-0.6-0.4-1.1-0.9-1.7-1.3-1.3-0.8-2.8-1.2-4.3-1.2h-1.8c-1.2 0-2.3 0.2-3.3 0.7-1.1 0.3-2 0.9-2.7 1.8-0.8 0.8-1.4 1.7-1.8 2.7-0.5 1-0.8 2.1-0.7 3.3 0.1 0.8 0.2 1.5 0.3 2.3 0.4 1.4 1.1 2.7 2.2 3.8 0.6 0.4 1.1 0.9 1.7 1.3 1.3 0.8 2.8 1.2 4.3 1.2h1.8c1.2 0 2.3-0.2 3.3-0.7 1.1-0.3 2-0.9 2.7-1.8 0.8-0.8 1.4-1.7 1.8-2.7 0.5-1 0.8-2.1 0.7-3.3-0.1-0.8-0.2-1.6-0.3-2.3zM225.1 467.1c-3.6-3.6-8.4-2.8-12 0-14.9 11.7-25.8 27.5-32.1 45.3-3.7 10.3 12.7 14.8 16.4 4.5 5.4-15.1 15.1-27.9 27.8-37.8 3.5-2.8 2.9-9-0.1-12zM512.3 717c-0.4-1.4-1.1-2.7-2.2-3.8-0.6-0.4-1.1-0.9-1.7-1.3-1.3-0.8-2.8-1.2-4.3-1.2h-1.8c-1.2 0-2.3 0.2-3.3 0.7-1.1 0.3-2 0.9-2.7 1.8-0.8 0.8-1.4 1.7-1.8 2.7-0.5 1-0.8 2.1-0.7 3.3 0.1 0.8 0.2 1.5 0.3 2.3 0.4 1.4 1.1 2.7 2.2 3.8 0.6 0.4 1.1 0.9 1.7 1.3 1.3 0.8 2.8 1.2 4.3 1.2h1.8c1.2 0 2.3-0.2 3.3-0.7 1.1-0.3 2-0.9 2.7-1.8 0.8-0.8 1.4-1.7 1.8-2.7 0.5-1 0.8-2.1 0.7-3.3-0.1-0.8-0.2-1.6-0.3-2.3zM558.2 636.7c-19.6 12.9-33.8 32.4-39.8 55.2-2.8 10.6 13.6 15.1 16.4 4.5 4.8-18.4 16.1-34.5 32-45 9-6 0.5-20.7-8.6-14.7z" fill="#FFFFFF" p-id="7171"></path><path d="M795.3 291.4c-31 12.5-88.9 24.2-155.2-21.2l-0.1-0.1c-71.4-49-82.6-105.1-82.4-136.7-0.3-9.3 10.4-15 16.6-16 35.9-8.2 99.5-14.3 153.3 24 53.2 37.8 71.2 95.5 77.4 130.1 1.3 6.2-0.9 17.6-9.6 19.9" fill="#8BCA58" p-id="7172"></path></svg>