<?xml version="1.0" standalone="no"?><!DOCTYPE svg PUBLIC "-//W3C//DTD SVG 1.1//EN" "http://www.w3.org/Graphics/SVG/1.1/DTD/svg11.dtd"><svg t="1618025920718" class="icon" viewBox="0 0 1024 1024" version="1.1" xmlns="http://www.w3.org/2000/svg" p-id="7320" xmlns:xlink="http://www.w3.org/1999/xlink" width="200" height="200"><defs><style type="text/css"></style></defs><path d="M455.8 312c-37.2 0-76.3-14.9-102.4-42.8-31.6-31.7-48.4-80.1-41-124.7 0-7.4 7.4-13 14.9-14.9 44.7-7.4 91.2 7.4 124.7 41 31.7 31.7 48.4 80.1 41 124.7 0 7.4-7.4 13-14.9 14.9-7.4 1.8-14.9 1.8-22.3 1.8z" fill="#8CCB58" p-id="7321"></path><path d="M495.6 251.5c11.1-35.6 37-68.5 71.4-85 39.7-20.8 90.8-22.4 131.3-1.9 7.1 2.2 10.2 11 9.7 18.7-6.2 44.9-34.3 84.9-76.3 106.9-39.7 20.8-90.8 22.4-131.3 1.9-7.1-2.2-10.2-11-9.7-18.7 0.5-7.6 2.8-14.7 4.9-21.9z" fill="#72BF57" p-id="7322"></path><path d="M495 241c-179.4 9.4-322.9 158.6-322.9 339.8 0 186.9 152.9 339.8 339.8 339.8s339.8-152.9 339.8-339.8c0-181.2-141.6-328.6-319-338" fill="#F57C29" p-id="7323"></path><path d="M805.2 591.6H562.5l156.3 156.3c8.4 8.5 25.3 8.5 31.6-2.2 31.6-44.3 52.8-97.1 54.8-154.1zM490.7 840.7V621.2L334.4 777.5c-8.4 8.4-8.4 25.3 2.2 31.6 38 27.4 80.2 46.5 128.8 52.7 12.6 2.2 25.3-8.4 25.3-21.1zM532.9 621.2v219.6c0 12.7 12.7 23.2 25.3 21.1 46.5-8.4 90.8-25.3 128.8-52.7 10.5-8.4 12.7-23.2 2.2-31.6L532.9 621.2zM461.1 591.6H218.3c4.2 57 23.2 109.8 54.9 152.1 8.4 10.5 23.2 12.7 31.6 2.2l156.3-154.3zM805.2 569.5c-2-57-23.2-109.8-54.9-154.1-6.4-10.7-23.2-10.7-31.6-2.2L562.5 569.5h242.7zM490.7 320.4c0-12.7-12.7-23.2-25.3-21.1-48.7 6.2-90.8 25.3-128.8 52.7-10.5 6.4-10.5 23.2-2.2 31.6l156.3 156.3V320.4zM689.1 383.7c10.5-8.4 8.4-23.2-2.2-31.6-38-27.4-82.3-44.3-128.8-52.7-12.6-2.2-25.3 8.4-25.3 21.1v219.6l156.3-156.4zM304.8 415.3c-8.4-10.5-23.2-8.4-31.6 2.2-31.6 42.3-50.7 95-54.9 152.1h242.8L304.8 415.3z" fill="#FFAB15" p-id="7324"></path><path d="M371.8 287.6c-13.7 7.2-26.5 15.9-38.2 26-6.9 5.9 3.1 15.7 9.9 9.9 10.9-9.3 22.7-17.2 35.4-23.8 7.9-4.2 0.9-16.2-7.1-12.1zM318.3 336.7c-9 0-9 14 0 14s9.1-14 0-14z" fill="#FFFFFF" p-id="7325"></path></svg>