<?xml version="1.0" standalone="no"?><!DOCTYPE svg PUBLIC "-//W3C//DTD SVG 1.1//EN" "http://www.w3.org/Graphics/SVG/1.1/DTD/svg11.dtd"><svg t="1618023292986" class="icon" viewBox="0 0 1024 1024" version="1.1" xmlns="http://www.w3.org/2000/svg" p-id="1727" xmlns:xlink="http://www.w3.org/1999/xlink" width="200" height="200"><defs><style type="text/css"></style></defs><path d="M678.424164 872.821549c16.721104-9.934303 35.901194-6.88516 42.687994 6.786801l8.360552 16.721104c6.88516 13.671961-1.180313 32.950411-17.901417 42.786354-16.721104 9.934303-35.901194 6.88516-42.687995-6.786801l-8.360552-16.721104c-6.88516-13.671961 1.180313-32.950411 17.901418-42.786354z" fill="#38A86E" p-id="1728"></path><path d="M699.079645 562.104094c128.359062 205.177781 66.09754 287.307909-2.065548 333.438484-50.655109 34.229083-156.981658 85.867787-285.34072-119.309994-248.259213-396.978679-273.439229-569.402768-169.768385-639.336326 96.490605-65.212305 204.489265 21.147278 457.174653 425.207836z" fill="#FFC025" p-id="1729"></path><path d="M80.49716 248.337498l-21.835795 14.065399c-5.901566 3.836018-13.081805 3.049142-15.835869-1.672111l-1.278672-2.163907c-2.754064-4.721253-0.196719-11.901492 5.704847-15.73751l21.835794-14.163758c5.901566-3.836018 13.081805-3.049142 15.835869 1.67211l1.278673 2.163908c2.852424 4.917972 0.196719 11.999851-5.704847 15.835869zM130.267034 216.075603l-21.835795 14.065399c-5.901566 3.836018-13.081805 3.049142-15.835869-1.67211l-1.278672-2.163908c-2.754064-4.721253-0.196719-11.901492 5.704847-15.737509l21.835794-14.163759c5.901566-3.836018 13.081805-3.049142 15.835869 1.67211l1.278673 2.163908c2.754064 4.917972 0.295078 11.901492-5.704847 15.835869zM180.135267 183.715349l-21.835794 14.163759c-5.901566 3.836018-13.081805 3.049142-15.835869-1.672111l-1.278673-2.163907c-2.754064-4.721253-0.196719-11.901492 5.704847-15.73751l21.835795-14.163759c5.901566-3.836018 13.081805-3.049142 15.835869 1.672111l1.278672 2.163907c2.754064 4.819612 0.196719 11.901492-5.704847 15.73751zM230.003501 151.256735l-21.835795 14.163759c-5.901566 3.836018-13.081805 3.049142-15.835869-1.67211l-1.278673-2.163908c-2.754064-4.721253-0.196719-11.901492 5.704848-15.737509l21.835794-14.163759c5.901566-3.836018 13.081805-3.049142 15.835869 1.67211l1.278673 2.163908c2.852424 4.917972 0.196719 11.901492-5.704847 15.737509zM279.773375 118.994841l-21.835795 14.163758c-5.901566 3.836018-13.081805 3.049142-15.835869-1.67211l-1.278673-2.163907c-2.754064-4.721253-0.196719-11.901492 5.704848-15.73751L268.36368 99.421313c5.901566-3.836018 13.081805-3.049142 15.835869 1.672111l1.278673 2.163907c2.754064 4.917972 0.295078 11.803132-5.704847 15.73751zM329.641608 86.634587l-21.835795 14.163758c-5.901566 3.836018-13.081805 3.049142-15.835869-1.67211l-1.278672-2.163907c-2.754064-4.721253-0.196719-11.901492 5.704847-15.73751L318.231914 67.061059c5.901566-3.836018 13.081805-3.049142 15.835869 1.672111l1.278672 2.163907c2.754064 4.917972 0.196719 11.901492-5.704847 15.73751zM379.411482 54.372692l-21.737435 14.065399c-5.901566 3.836018-13.081805 3.049142-15.835869-1.67211l-1.278673-2.163908c-2.754064-4.721253-0.196719-11.901492 5.704847-15.737509l21.835795-14.163759c5.901566-3.836018 13.081805-3.049142 15.835869 1.672111l1.278673 2.163907c2.655705 4.917972 0.196719 11.901492-5.803207 15.835869zM429.279715 22.012438l-21.835794 14.163759c-5.901566 3.836018-13.081805 3.049142-15.835869-1.672111l-1.278673-2.163907c-2.754064-4.721253-0.196719-11.901492 5.704847-15.73751l21.835795-14.163758c5.901566-3.836018 13.081805-3.049142 15.835869 1.67211l1.278673 2.163908c2.754064 4.819612 0.196719 11.901492-5.704848 15.737509zM94.857637 273.025716l-21.835794 14.163758c-5.901566 3.836018-13.081805 3.049142-15.835869-1.67211l-1.278673-2.163908c-2.754064-4.721253-0.196719-11.901492 5.704847-15.737509l21.835795-14.163759c5.901566-3.836018 13.081805-3.049142 15.835869 1.672111l1.278672 2.163907c2.852424 4.819612 0.196719 11.901492-5.704847 15.73751zM144.725871 240.665462L122.988436 254.82922c-5.901566 3.836018-13.081805 3.049142-15.835869-1.67211l-1.278673-2.163908c-2.754064-4.721253-0.196719-11.901492 5.704847-15.737509l21.835795-14.163759c5.901566-3.836018 13.081805-3.049142 15.835869 1.672111l1.278672 2.163907c2.754064 4.819612 0.098359 11.901492-5.803206 15.73751zM194.495745 208.403567L172.65995 222.567326c-5.901566 3.836018-13.081805 3.049142-15.835869-1.672111l-1.278673-2.163907c-2.754064-4.721253-0.196719-11.901492 5.704848-15.73751l21.835794-14.163758c5.901566-3.836018 13.081805-3.049142 15.835869 1.67211l1.278673 2.163908c2.754064 4.721253 0.295078 11.803132-5.704847 15.737509zM244.363978 176.043313l-21.835794 14.163759c-5.901566 3.836018-13.081805 3.049142-15.835869-1.672111l-1.278673-2.163907c-2.754064-4.721253-0.196719-11.901492 5.704847-15.73751l21.835795-14.163758c5.901566-3.836018 13.081805-3.049142 15.835869 1.67211l1.278672 2.163907c2.852424 4.721253 0.196719 11.901492-5.704847 15.73751zM294.133852 143.781418l-21.835794 14.163759c-5.901566 3.836018-13.081805 3.049142-15.835869-1.67211l-1.278673-2.163908c-2.754064-4.721253-0.196719-11.901492 5.704847-15.737509l21.835795-14.163759c5.901566-3.836018 13.081805-3.049142 15.835869 1.67211l1.278672 2.163908c2.754064 4.721253 0.295078 11.803132-5.704847 15.737509zM344.002085 111.421164L322.166291 125.584923c-5.901566 3.836018-13.081805 3.049142-15.835869-1.67211l-1.278673-2.163908c-2.754064-4.721253-0.196719-11.901492 5.704848-15.73751l21.835794-14.163758c5.901566-3.836018 13.081805-3.049142 15.835869 1.67211l1.278673 2.163908c2.852424 4.721253 0.196719 11.901492-5.704848 15.737509zM393.870319 78.962551l-21.835795 14.163759c-5.901566 3.836018-13.081805 3.049142-15.835869-1.672111l-1.278672-2.163907c-2.754064-4.721253-0.196719-11.901492 5.704847-15.73751l21.835794-14.163759c5.901566-3.836018 13.081805-3.049142 15.835869 1.672111l1.278673 2.163907c2.852424 4.917972 0.196719 11.901492-5.704847 15.73751zM443.640193 46.700656l-21.835795 14.163759c-5.901566 3.836018-13.081805 3.049142-15.835869-1.67211l-1.278672-2.163908c-2.754064-4.721253-0.196719-11.901492 5.704847-15.73751l21.835794-14.163758c5.901566-3.836018 13.081805-3.049142 15.835869 1.67211l1.278673 2.163908c2.754064 4.819612 0.295078 11.803132-5.704847 15.737509zM109.316474 297.713934L87.48068 311.877692c-5.901566 3.836018-13.081805 3.049142-15.835869-1.67211l-1.278673-2.163908c-2.754064-4.721253-0.196719-11.901492 5.704847-15.737509L97.90678 278.238766c5.901566-3.836018 13.081805-3.049142 15.835869 1.67211l1.278672 2.163908c2.754064 4.721253 0.196719 11.803132-5.704847 15.63915zM159.184708 265.35368l-21.835795 14.163758c-5.901566 3.836018-13.081805 3.049142-15.835869-1.67211l-1.278673-2.163908c-2.754064-4.721253-0.196719-11.901492 5.704848-15.737509l21.835794-14.163759c5.901566-3.836018 13.081805-3.049142 15.835869 1.672111l1.278673 2.163907c2.754064 4.819612 0.196719 11.901492-5.704847 15.73751zM208.856222 232.993426l-21.835794 14.163758c-5.901566 3.836018-13.081805 3.049142-15.835869-1.67211l-1.278673-2.163908c-2.754064-4.721253-0.196719-11.901492 5.704847-15.737509l21.835795-14.163759c5.901566-3.836018 13.081805-3.049142 15.835869 1.672111l1.278672 2.163907c2.852424 4.917972 0.295078 11.901492-5.704847 15.73751zM258.724456 200.633172l-21.835795 14.163758c-5.901566 3.836018-13.081805 3.049142-15.835869-1.67211l-1.278673-2.163908c-2.754064-4.721253-0.196719-11.901492 5.704848-15.737509l21.835794-14.163759c5.901566-3.836018 13.081805-3.049142 15.835869 1.672111l1.278673 2.163907c2.852424 4.917972 0.196719 11.999851-5.704847 15.73751zM308.592689 168.272918L286.756894 182.436676c-5.901566 3.836018-13.081805 3.049142-15.835869-1.67211l-1.278672-2.163908c-2.754064-4.721253-0.196719-11.901492 5.704847-15.737509l21.835795-14.163759c5.901566-3.836018 13.081805-3.049142 15.835869 1.672111l1.278672 2.163907c2.852424 4.917972 0.196719 11.999851-5.704847 15.73751zM358.362563 136.011023l-21.835795 14.163759c-5.901566 3.836018-13.081805 3.049142-15.835869-1.672111l-1.278672-2.163907c-2.754064-4.721253-0.196719-11.901492 5.704847-15.73751l21.835794-14.163758c5.901566-3.836018 13.081805-3.049142 15.835869 1.67211l1.278673 2.163908c2.852424 4.819612 0.295078 11.901492-5.704847 15.737509zM408.230796 103.650769l-21.835794 14.163759c-5.901566 3.836018-13.081805 3.049142-15.835869-1.672111l-1.278673-2.163907c-2.754064-4.721253-0.196719-11.901492 5.704847-15.73751l21.835795-14.163758c5.901566-3.836018 13.081805-3.049142 15.835869 1.67211l1.278673 2.163908c2.852424 4.819612 0.196719 11.999851-5.704848 15.737509zM458.09903 71.388874L436.263235 85.552633c-5.901566 3.836018-13.081805 3.049142-15.835869-1.67211l-1.278672-2.163908c-2.754064-4.721253-0.196719-11.901492 5.704847-15.737509l21.835794-14.163759c5.901566-3.836018 13.081805-3.049142 15.835869 1.67211l1.278673 2.163908c2.852424 4.721253 0.196719 11.901492-5.704847 15.737509zM123.676952 322.402152L101.841157 336.565911c-5.901566 3.836018-13.081805 3.049142-15.835869-1.672111l-1.278673-2.163907c-2.754064-4.721253-0.196719-11.901492 5.704848-15.73751l21.835794-14.163759c5.901566-3.836018 13.081805-3.049142 15.835869 1.672111l1.278673 2.163907c2.852424 4.819612 0.295078 11.803132-5.704847 15.73751zM173.545185 290.041898l-21.835794 14.163759c-5.901566 3.836018-13.081805 3.049142-15.835869-1.672111l-1.278673-2.163907c-2.754064-4.721253-0.196719-11.901492 5.704847-15.73751l21.835795-14.163759c5.901566-3.836018 13.081805-3.049142 15.835869 1.672111l1.278672 2.163907c2.754064 4.819612 0.196719 11.901492-5.704847 15.73751zM223.413418 257.681644l-21.835794 14.163758c-5.901566 3.836018-13.081805 3.049142-15.835869-1.67211l-1.278673-2.163907c-2.754064-4.721253-0.196719-11.901492 5.704848-15.73751L212.003724 238.108116c5.901566-3.836018 13.081805-3.049142 15.835869 1.672111l1.278673 2.163907c2.754064 4.819612 0.196719 11.901492-5.704848 15.73751zM273.183292 225.419749L251.347498 239.583508c-5.901566 3.836018-13.081805 3.049142-15.835869-1.672111l-1.278673-2.163907c-2.754064-4.721253-0.196719-11.901492 5.704847-15.73751l21.835795-14.163758c5.901566-3.836018 13.081805-3.049142 15.835869 1.67211l1.278673 2.163908c2.754064 4.819612 0.295078 11.803132-5.704848 15.737509zM323.051526 193.059495l-21.835795 14.163759c-5.901566 3.836018-13.081805 3.049142-15.835869-1.672111l-1.278672-2.163907c-2.754064-4.721253-0.196719-11.901492 5.704847-15.73751l21.835794-14.163758c5.901566-3.836018 13.081805-3.049142 15.835869 1.67211l1.278673 2.163908c2.754064 4.819612 0.196719 11.901492-5.704847 15.737509zM372.72304 160.699241l-21.835794 14.163759c-5.901566 3.836018-13.081805 3.049142-15.835869-1.672111l-1.278673-2.163907c-2.754064-4.721253-0.196719-11.901492 5.704847-15.73751l21.835795-14.163758c5.901566-3.836018 13.081805-3.049142 15.835869 1.67211l1.278673 2.163908c2.950783 4.819612 0.295078 11.803132-5.704848 15.737509zM422.591274 128.338987L400.853839 142.502746c-5.901566 3.836018-13.081805 3.049142-15.835869-1.672111l-1.278673-2.163907c-2.754064-4.721253-0.196719-11.901492 5.704847-15.73751l21.835795-14.163758c5.901566-3.836018 13.081805-3.049142 15.835869 1.67211l1.278672 2.163908c2.754064 4.917972 0.098359 11.901492-5.803206 15.737509zM472.459507 95.978733l-21.835794 14.163759c-5.901566 3.836018-13.081805 3.049142-15.835869-1.672111l-1.278673-2.163907c-2.754064-4.721253-0.196719-11.901492 5.704847-15.73751l21.835795-14.163758c5.901566-3.836018 13.081805-3.049142 15.835869 1.67211l1.278672 2.163908c2.852424 4.917972 0.196719 11.901492-5.704847 15.737509z" fill="#FED15A" p-id="1730"></path><path d="M138.234148 347.09037l-21.835795 14.163759c-5.901566 3.836018-13.081805 3.049142-15.835869-1.672111l-1.278672-2.163907c-2.754064-4.721253-0.196719-11.901492 5.704847-15.73751l21.835795-14.163758c5.901566-3.836018 13.081805-3.049142 15.835869 1.67211l1.278672 2.163908c2.754064 4.721253 0.196719 11.901492-5.704847 15.737509zM187.905663 314.730116l-21.835795 14.163759c-5.901566 3.836018-13.081805 3.049142-15.835869-1.672111l-1.278673-2.163907c-2.754064-4.721253-0.196719-11.901492 5.704848-15.73751l21.835794-14.163758c5.901566-3.836018 13.081805-3.049142 15.835869 1.67211l1.278673 2.163907c2.852424 4.819612 0.295078 11.803132-5.704847 15.73751zM237.773896 282.369862L215.938101 296.533621c-5.901566 3.836018-13.081805 3.049142-15.835869-1.672111l-1.278672-2.163907c-2.754064-4.721253-0.196719-11.901492 5.704847-15.73751l21.835794-14.163759c5.901566-3.836018 13.081805-3.049142 15.835869 1.672111l1.278673 2.163907c2.852424 4.819612 0.196719 11.901492-5.704847 15.73751zM287.54377 250.107967l-21.835795 14.163759c-5.901566 3.836018-13.081805 3.049142-15.835869-1.67211l-1.278672-2.163908c-2.754064-4.721253-0.196719-11.901492 5.704847-15.73751l21.835794-14.163758c5.901566-3.836018 13.081805-3.049142 15.835869 1.67211l1.278673 2.163908c2.950783 4.721253 0.295078 11.803132-5.704847 15.737509zM337.412003 217.747713l-21.835794 14.163759c-5.901566 3.836018-13.081805 3.049142-15.835869-1.67211l-1.278673-2.163908c-2.754064-4.721253-0.196719-11.901492 5.704847-15.73751l21.835795-14.163758c5.901566-3.836018 13.081805-3.049142 15.835869 1.67211l1.278673 2.163908c2.852424 4.819612 0.196719 11.901492-5.704848 15.737509zM387.280237 185.387459L365.444442 199.551218c-5.901566 3.836018-13.081805 3.049142-15.835869-1.67211l-1.278672-2.163908c-2.754064-4.721253-0.196719-11.901492 5.704847-15.73751l21.835794-14.163758c5.901566-3.836018 13.081805-3.049142 15.835869 1.67211l1.278673 2.163908c2.754064 4.721253 0.196719 11.901492-5.704847 15.737509zM437.050111 153.125565L415.214316 167.289323c-5.901566 3.836018-13.081805 3.049142-15.835869-1.67211l-1.278672-2.163908c-2.754064-4.721253-0.196719-11.901492 5.704847-15.737509l21.835794-14.163759c5.901566-3.836018 13.081805-3.049142 15.835869 1.672111l1.278673 2.163907c2.754064 4.721253 0.295078 11.803132-5.704847 15.73751zM486.918344 120.765311l-21.835794 14.163758c-5.901566 3.836018-13.081805 3.049142-15.835869-1.67211l-1.278673-2.163908c-2.754064-4.721253-0.196719-11.901492 5.704847-15.737509l21.835795-14.163759c5.901566-3.836018 13.081805-3.049142 15.835869 1.672111l1.278672 2.163907c2.754064 4.721253 0.196719 11.901492-5.704847 15.73751z" fill="#FED15A" p-id="1731"></path><path d="M152.594625 371.680229l-21.835794 14.163758c-5.901566 3.836018-13.081805 3.049142-15.835869-1.67211l-1.278673-2.163908c-2.754064-4.721253-0.196719-11.901492 5.704847-15.737509l21.835795-14.163759c5.901566-3.836018 13.081805-3.049142 15.835869 1.672111l1.278673 2.163907c2.754064 4.917972 0.196719 11.901492-5.704848 15.73751zM202.364499 339.418334L180.528705 353.582093c-5.901566 3.836018-13.081805 3.049142-15.835869-1.672111l-1.278673-2.163907c-2.754064-4.721253-0.196719-11.901492 5.704847-15.73751l21.835795-14.163758c5.901566-3.836018 13.081805-3.049142 15.835869 1.67211l1.278673 2.163908c2.852424 4.721253 0.295078 11.803132-5.704848 15.737509zM252.232733 307.05808l-21.835795 14.163759c-5.901566 3.836018-13.081805 3.049142-15.835869-1.672111l-1.278672-2.163907c-2.754064-4.721253-0.196719-11.901492 5.704847-15.73751l21.835794-14.163758c5.901566-3.836018 13.081805-3.049142 15.835869 1.67211l1.278673 2.163908c2.754064 4.819612 0.196719 11.901492-5.704847 15.737509zM302.100966 274.697826l-21.835794 14.163759c-5.901566 3.836018-13.081805 3.049142-15.835869-1.672111l-1.278673-2.163907c-2.754064-4.721253-0.196719-11.901492 5.704847-15.73751l21.835795-14.163758c5.901566-3.836018 13.081805-3.049142 15.835869 1.67211l1.278672 2.163908c2.754064 4.819612 0.196719 11.901492-5.704847 15.737509zM351.87084 242.435931L330.035046 256.59969c-5.901566 3.836018-13.081805 3.049142-15.835869-1.67211l-1.278673-2.163908c-2.754064-4.721253-0.196719-11.901492 5.704847-15.737509l21.835795-14.163759c5.901566-3.836018 13.081805-3.049142 15.835869 1.67211l1.278672 2.163908c2.754064 4.819612 0.295078 11.803132-5.704847 15.737509zM401.640714 209.977318l-21.835794 14.163759c-5.901566 3.836018-13.081805 3.049142-15.835869-1.672111l-1.278673-2.163907c-2.754064-4.721253-0.196719-11.901492 5.704847-15.73751l21.835795-14.163758c5.901566-3.836018 13.081805-3.049142 15.835869 1.67211l1.278672 2.163907c2.852424 4.917972 0.196719 11.999851-5.704847 15.73751zM451.508948 177.617064L429.673153 191.879182c-5.901566 3.836018-13.081805 3.049142-15.835869-1.67211l-1.278673-2.163908c-2.754064-4.721253-0.196719-11.901492 5.704848-15.737509l21.835794-14.163759c5.901566-3.836018 13.081805-3.049142 15.835869 1.67211l1.278673 2.163908c2.852424 4.819612 0.196719 11.901492-5.704847 15.63915zM501.278822 145.355169l-21.835795 14.163759c-5.901566 3.836018-13.081805 3.049142-15.835869-1.67211l-1.278673-2.163908c-2.754064-4.721253-0.196719-11.901492 5.704848-15.73751l21.835794-14.163758c5.901566-3.836018 13.081805-3.049142 15.835869 1.67211l1.278673 2.163908c2.852424 4.917972 0.295078 11.901492-5.704847 15.737509z" fill="#FED15A" p-id="1732"></path><path d="M166.955103 396.466806L145.119308 410.630565c-5.901566 3.836018-13.081805 3.049142-15.835869-1.67211l-1.278672-2.163908c-2.754064-4.721253-0.196719-11.901492 5.704847-15.73751l21.835794-14.163758c5.901566-3.836018 13.081805-3.049142 15.835869 1.67211l1.278673 2.163908c2.754064 4.721253 0.196719 11.901492-5.704847 15.737509zM216.823336 364.008193l-21.835794 14.163758c-5.901566 3.836018-13.081805 3.049142-15.835869-1.67211l-1.278673-2.163908c-2.754064-4.721253-0.196719-11.901492 5.704847-15.737509l21.835795-14.163759c5.901566-3.836018 13.081805-3.049142 15.835869 1.672111l1.278673 2.163907c2.852424 4.917972 0.196719 11.901492-5.704848 15.73751zM266.59321 331.746298l-21.835794 14.163759c-5.901566 3.836018-13.081805 3.049142-15.835869-1.672111l-1.278673-2.163907c-2.754064-4.721253-0.196719-11.901492 5.704847-15.73751l21.835795-14.163758c5.901566-3.836018 13.081805-3.049142 15.835869 1.67211l1.278673 2.163908c2.754064 4.819612 0.295078 11.803132-5.704848 15.737509zM316.461444 299.386044L294.625649 313.549803c-5.901566 3.836018-13.081805 3.049142-15.835869-1.672111l-1.278672-2.163907c-2.754064-4.721253-0.196719-11.901492 5.704847-15.73751l21.835794-14.163758c5.901566-3.836018 13.081805-3.049142 15.835869 1.67211l1.278673 2.163908c2.852424 4.819612 0.196719 11.901492-5.704847 15.737509zM366.329677 267.02579l-21.835794 14.163759c-5.901566 3.836018-13.081805 3.049142-15.835869-1.672111l-1.278673-2.163907c-2.754064-4.721253-0.196719-11.901492 5.704847-15.73751l21.835795-14.163758c5.901566-3.836018 13.081805-3.049142 15.835869 1.67211l1.278672 2.163908c2.754064 4.819612 0.196719 11.901492-5.704847 15.737509zM416.099551 234.763896L394.263757 248.927654c-5.901566 3.836018-13.081805 3.049142-15.835869-1.67211l-1.278673-2.163908c-2.754064-4.721253-0.196719-11.901492 5.704847-15.737509l21.835795-14.163759c5.901566-3.836018 13.081805-3.049142 15.835869 1.67211l1.278672 2.163908c2.754064 4.819612 0.295078 11.803132-5.704847 15.73751zM465.967785 202.403642L444.13199 216.5674c-5.901566 3.836018-13.081805 3.049142-15.835869-1.67211l-1.278673-2.163908c-2.754064-4.721253-0.196719-11.901492 5.704848-15.737509l21.835794-14.163759c5.901566-3.836018 13.081805-3.049142 15.835869 1.67211l1.278673 2.163908c2.754064 4.819612 0.196719 11.901492-5.704847 15.73751zM515.737659 170.141747l-21.835795 14.163759c-5.901566 3.836018-13.081805 3.049142-15.835869-1.672111l-1.278673-2.163907c-2.754064-4.721253-0.196719-11.901492 5.704848-15.73751l21.835794-14.163759c5.901566-3.836018 13.081805-3.049142 15.835869 1.672111l1.278673 2.163907c2.852424 4.721253 0.295078 11.803132-5.704847 15.73751z" fill="#FED15A" p-id="1733"></path><path d="M181.31558 421.056665l-21.835794 14.163759c-5.901566 3.836018-13.081805 3.049142-15.835869-1.672111l-1.278673-2.163907c-2.754064-4.721253-0.196719-11.901492 5.704847-15.73751l21.835795-14.163759c5.901566-3.836018 13.081805-3.049142 15.835869 1.672111l1.278673 2.163907c2.852424 4.819612 0.295078 11.901492-5.704848 15.73751zM231.183814 388.696411l-21.835795 14.163759c-5.901566 3.836018-13.081805 3.049142-15.835869-1.672111l-1.278672-2.163907c-2.754064-4.721253-0.196719-11.901492 5.704847-15.73751l21.835794-14.163759c5.901566-3.836018 13.081805-3.049142 15.835869 1.672111l1.278673 2.163907c2.852424 4.819612 0.196719 11.999851-5.704847 15.73751zM281.052047 356.434516L259.216253 370.598275c-5.901566 3.836018-13.081805 3.049142-15.835869-1.67211l-1.278673-2.163908c-2.754064-4.721253-0.196719-11.901492 5.704847-15.73751l21.835795-14.163758c5.901566-3.836018 13.081805-3.049142 15.835869 1.67211l1.278672 2.163908c2.852424 4.721253 0.196719 11.901492-5.704847 15.737509zM330.821921 324.074262l-21.835794 14.163759c-5.901566 3.836018-13.081805 3.049142-15.835869-1.67211l-1.278673-2.163908c-2.754064-4.721253-0.196719-11.901492 5.704847-15.73751l21.835795-14.163758c5.901566-3.836018 13.081805-3.049142 15.835869 1.67211l1.278672 2.163908c2.852424 4.819612 0.295078 11.901492-5.704847 15.737509zM380.690155 291.714008l-21.835795 14.163759c-5.901566 3.836018-13.081805 3.049142-15.835869-1.67211l-1.278673-2.163908c-2.754064-4.721253-0.196719-11.901492 5.704848-15.73751l21.835794-14.163758c5.901566-3.836018 13.081805-3.049142 15.835869 1.67211l1.278673 2.163908c2.852424 4.819612 0.196719 11.901492-5.704847 15.737509zM430.460029 259.452114l-21.835795 14.163758c-5.901566 3.836018-13.081805 3.049142-15.835869-1.67211l-1.278673-2.163908c-2.754064-4.721253-0.196719-11.901492 5.704848-15.737509l21.835794-14.163759c5.901566-3.836018 13.081805-3.049142 15.835869 1.672111l1.278673 2.163907c2.950783 4.721253 0.295078 11.803132-5.704847 15.73751zM480.328262 227.09186l-21.835795 14.163758c-5.901566 3.836018-13.081805 3.049142-15.835868-1.67211l-1.278673-2.163908c-2.754064-4.721253-0.196719-11.901492 5.704847-15.737509l21.835795-14.163759c5.901566-3.836018 13.081805-3.049142 15.835869 1.672111l1.278672 2.163907c2.852424 4.819612 0.196719 11.901492-5.704847 15.73751zM530.196495 194.731606l-21.835794 14.163758c-5.901566 3.836018-13.081805 3.049142-15.835869-1.67211l-1.278673-2.163908c-2.754064-4.721253-0.196719-11.901492 5.704847-15.737509l21.835795-14.163759c5.901566-3.836018 13.081805-3.049142 15.835869 1.672111l1.278673 2.163907c2.754064 4.721253 0.196719 11.901492-5.704848 15.73751z" fill="#FED15A" p-id="1734"></path><path d="M195.774417 445.646524l-21.835794 14.163758c-5.901566 3.836018-13.081805 3.049142-15.835869-1.67211l-1.278673-2.163908c-2.754064-4.721253-0.196719-11.901492 5.704847-15.737509l21.835795-14.163759c5.901566-3.836018 13.081805-3.049142 15.835869 1.672111l1.278673 2.163907c2.852424 4.917972 0.196719 11.901492-5.704848 15.73751zM245.544291 413.384629L223.806856 427.548388c-5.901566 3.836018-13.081805 3.049142-15.835869-1.672111l-1.278672-2.163907c-2.754064-4.721253-0.196719-11.901492 5.704847-15.73751l21.835794-14.163758c5.901566-3.836018 13.081805-3.049142 15.835869 1.67211l1.278673 2.163908c2.754064 4.917972 0.196719 11.803132-5.803207 15.737509zM295.412525 381.024375l-21.835795 14.163759c-5.901566 3.836018-13.081805 3.049142-15.835869-1.672111l-1.278672-2.163907c-2.754064-4.721253-0.196719-11.901492 5.704847-15.73751l21.835794-14.163758c5.901566-3.836018 13.081805-3.049142 15.835869 1.67211l1.278673 2.163907c2.852424 4.917972 0.196719 11.901492-5.704847 15.73751zM345.182399 348.76248l-21.835795 14.163759c-5.901566 3.836018-13.081805 3.049142-15.835869-1.67211l-1.278672-2.163908c-2.754064-4.721253-0.196719-11.901492 5.704847-15.737509l21.835794-14.163759c5.901566-3.836018 13.081805-3.049142 15.835869 1.67211l1.278673 2.163908c2.950783 4.721253 0.295078 11.803132-5.704847 15.737509zM395.050632 316.402226L373.313197 330.565985c-5.901566 3.836018-13.081805 3.049142-15.835869-1.67211l-1.278673-2.163908c-2.754064-4.721253-0.196719-11.901492 5.704848-15.737509l21.835794-14.163759c5.901566-3.836018 13.081805-3.049142 15.835869 1.67211l1.278673 2.163908c2.754064 4.819612 0.098359 11.901492-5.803207 15.737509zM444.918866 284.041972l-21.835795 14.163759c-5.901566 3.836018-13.081805 3.049142-15.835869-1.67211l-1.278673-2.163908c-2.754064-4.721253-0.196719-11.901492 5.704848-15.73751l21.835794-14.163758c5.901566-3.836018 13.081805-3.049142 15.835869 1.67211l1.278673 2.163908c2.852424 4.819612 0.196719 11.901492-5.704847 15.737509zM494.688739 251.780078l-21.835794 14.163758c-5.901566 3.836018-13.081805 3.049142-15.835869-1.67211l-1.278673-2.163908c-2.754064-4.721253-0.196719-11.901492 5.704848-15.737509l21.835794-14.163759c5.901566-3.836018 13.081805-3.049142 15.835869 1.672111l1.278673 2.163907c2.852424 4.819612 0.295078 11.803132-5.704848 15.73751zM544.556973 219.419824L522.819538 233.583582c-5.901566 3.836018-13.081805 3.049142-15.835869-1.67211l-1.278673-2.163908c-2.754064-4.721253-0.196719-11.901492 5.704847-15.737509l21.835795-14.163759c5.901566-3.836018 13.081805-3.049142 15.835869 1.672111l1.278673 2.163907c2.754064 4.819612 0.098359 11.901492-5.803207 15.73751z" fill="#FED15A" p-id="1735"></path><path d="M210.233254 470.433101L188.39746 484.59686c-5.901566 3.836018-13.081805 3.049142-15.835869-1.672111l-1.278673-2.163907c-2.754064-4.721253-0.196719-11.901492 5.704847-15.73751l21.835795-14.163758c5.901566-3.836018 13.081805-3.049142 15.835869 1.67211l1.278672 2.163908c2.754064 4.721253 0.196719 11.901492-5.704847 15.737509zM260.003128 438.171207l-21.835794 14.163758c-5.901566 3.836018-13.081805 3.049142-15.835869-1.67211l-1.278673-2.163908c-2.754064-4.721253-0.196719-11.901492 5.704847-15.737509l21.835795-14.163759c5.901566-3.836018 13.081805-3.049142 15.835869 1.672111l1.278672 2.163907c2.852424 4.721253 0.295078 11.803132-5.704847 15.73751zM309.871362 405.810953l-21.835795 14.163758c-5.901566 3.836018-13.081805 3.049142-15.835869-1.67211l-1.278673-2.163908c-2.754064-4.721253-0.196719-11.901492 5.704848-15.737509l21.835794-14.163759c5.901566-3.836018 13.081805-3.049142 15.835869 1.67211l1.278673 2.163908c2.754064 4.721253 0.196719 11.901492-5.704847 15.73751zM359.739595 373.450699L337.9038 387.614457c-5.901566 3.836018-13.081805 3.049142-15.835868-1.67211l-1.278673-2.163908c-2.754064-4.721253-0.196719-11.901492 5.704847-15.737509l21.835795-14.163759c5.901566-3.836018 13.081805-3.049142 15.835869 1.67211l1.278672 2.163908c2.754064 4.819612 0.196719 11.901492-5.704847 15.73751zM409.41111 341.090445l-21.835795 14.163758c-5.901566 3.836018-13.081805 3.049142-15.835869-1.67211l-1.278673-2.163908c-2.754064-4.721253-0.196719-11.901492 5.704848-15.737509l21.835794-14.163759c5.901566-3.836018 13.081805-3.049142 15.835869 1.67211l1.278673 2.163908c2.852424 4.819612 0.295078 11.803132-5.704847 15.73751zM459.279343 308.730191l-21.835795 14.163758c-5.901566 3.836018-13.081805 3.049142-15.835869-1.67211l-1.278672-2.163908c-2.754064-4.721253-0.196719-11.901492 5.704847-15.737509l21.835795-14.163759c5.901566-3.836018 13.081805-3.049142 15.835869 1.67211l1.278672 2.163908c2.852424 4.819612 0.196719 11.901492-5.704847 15.73751zM509.147576 276.369936L487.410141 290.533695c-5.901566 3.836018-13.081805 3.049142-15.835869-1.67211l-1.278672-2.163908c-2.754064-4.721253-0.196719-11.901492 5.704847-15.737509l21.835794-14.163759c5.901566-3.836018 13.081805-3.049142 15.835869 1.67211l1.278673 2.163908c2.754064 4.917972 0.098359 11.901492-5.803207 15.737509zM558.91745 244.108042l-21.835794 14.163758c-5.901566 3.836018-13.081805 3.049142-15.835869-1.67211l-1.278673-2.163907c-2.754064-4.721253-0.196719-11.901492 5.704847-15.73751l21.835795-14.163759c5.901566-3.836018 13.081805-3.049142 15.835869 1.672111l1.278673 2.163907c2.852424 4.819612 0.295078 11.803132-5.704848 15.73751z" fill="#FED15A" p-id="1736"></path><path d="M224.593732 495.02296l-21.835795 14.163759c-5.901566 3.836018-13.081805 3.049142-15.835869-1.672111l-1.278672-2.163907c-2.754064-4.721253-0.196719-11.901492 5.704847-15.73751l21.835794-14.163759c5.901566-3.836018 13.081805-3.049142 15.835869 1.672111l1.278673 2.163907c2.852424 4.917972 0.196719 11.999851-5.704847 15.73751zM274.461965 462.662706l-21.835794 14.163758c-5.901566 3.836018-13.081805 3.049142-15.835869-1.67211l-1.278673-2.163907c-2.754064-4.721253-0.196719-11.901492 5.704847-15.73751l21.835795-14.163759c5.901566-3.836018 13.081805-3.049142 15.835869 1.672111l1.278672 2.163907c2.852424 4.917972 0.196719 11.999851-5.704847 15.73751zM324.231839 430.400811L302.396045 444.662929c-5.901566 3.836018-13.081805 3.049142-15.835869-1.67211l-1.278673-2.163908c-2.754064-4.721253-0.196719-11.901492 5.704847-15.737509l21.835795-14.163759c5.901566-3.836018 13.081805-3.049142 15.835869 1.672111l1.278672 2.163907c2.852424 4.819612 0.295078 11.803132-5.704847 15.63915zM374.100072 398.040557L352.264278 412.204316c-5.901566 3.836018-13.081805 3.049142-15.835869-1.672111l-1.278673-2.163907c-2.754064-4.721253-0.196719-11.901492 5.704848-15.73751l21.835794-14.163758c5.901566-3.836018 13.081805-3.049142 15.835869 1.67211l1.278673 2.163908c2.754064 4.819612 0.196719 11.999851-5.704848 15.737509zM423.968306 365.778663l-21.835795 14.163758c-5.901566 3.836018-13.081805 3.049142-15.835869-1.67211l-1.278672-2.163908c-2.754064-4.721253-0.196719-11.901492 5.704847-15.737509l21.835794-14.163759c5.901566-3.836018 13.081805-3.049142 15.835869 1.672111l1.278673 2.163907c2.754064 4.721253 0.196719 11.901492-5.704847 15.73751zM473.73818 333.418409l-21.835795 14.163758c-5.901566 3.836018-13.081805 3.049142-15.835869-1.67211l-1.278672-2.163908c-2.754064-4.721253-0.196719-11.901492 5.704847-15.737509l21.835794-14.163759c5.901566-3.836018 13.081805-3.049142 15.835869 1.672111l1.278673 2.163907c2.754064 4.819612 0.196719 11.999851-5.704847 15.73751zM523.606413 301.156514l-21.835794 14.163759c-5.901566 3.836018-13.081805 3.049142-15.835869-1.672111l-1.278673-2.163907c-2.754064-4.721253-0.196719-11.901492 5.704847-15.73751l21.835795-14.163758c5.901566-3.836018 13.081805-3.049142 15.835869 1.67211l1.278673 2.163907c2.754064 4.721253 0.196719 11.901492-5.704848 15.73751zM573.277928 268.79626l-21.835795 14.163759c-5.901566 3.836018-13.081805 3.049142-15.835869-1.672111l-1.278672-2.163907c-2.754064-4.721253-0.196719-11.901492 5.704847-15.73751l21.835794-14.163759c5.901566-3.836018 13.081805-3.049142 15.835869 1.672111l1.278673 2.163907c2.852424 4.819612 0.295078 11.803132-5.704847 15.73751z" fill="#FED15A" p-id="1737"></path><path d="M239.052569 519.809537l-21.835795 14.163759c-5.901566 3.836018-13.081805 3.049142-15.835869-1.67211l-1.278673-2.163908c-2.754064-4.721253-0.196719-11.901492 5.704848-15.737509l21.835794-14.163759c5.901566-3.836018 13.081805-3.049142 15.835869 1.67211l1.278673 2.163908c2.754064 4.819612 0.295078 11.803132-5.704847 15.737509zM288.920802 487.449283L267.085007 501.613042c-5.901566 3.836018-13.081805 3.049142-15.835869-1.67211l-1.278672-2.163908c-2.754064-4.721253-0.196719-11.901492 5.704847-15.737509l21.835795-14.163759c5.901566-3.836018 13.081805-3.049142 15.835869 1.67211l1.278672 2.163908c2.754064 4.819612 0.196719 11.901492-5.704847 15.737509zM338.789035 455.089029L316.953241 469.252788c-5.901566 3.836018-13.081805 3.049142-15.835869-1.67211l-1.278673-2.163908c-2.754064-4.721253-0.196719-11.901492 5.704847-15.737509l21.835795-14.163759c5.901566-3.836018 13.081805-3.049142 15.835869 1.67211l1.278673 2.163908c2.754064 4.819612 0.196719 11.901492-5.704848 15.737509zM388.46055 422.728775l-21.835795 14.163759c-5.901566 3.836018-13.081805 3.049142-15.835869-1.67211l-1.278672-2.163908c-2.754064-4.721253-0.196719-11.901492 5.704847-15.73751l21.835795-14.163758c5.901566-3.836018 13.081805-3.049142 15.835869 1.67211l1.278672 2.163908c2.852424 4.917972 0.196719 11.901492-5.704847 15.737509zM438.328783 390.368521l-21.835794 14.163759c-5.901566 3.836018-13.081805 3.049142-15.835869-1.67211l-1.278673-2.163908c-2.754064-4.721253-0.196719-11.901492 5.704847-15.73751l21.835795-14.163758c5.901566-3.836018 13.081805-3.049142 15.835869 1.67211l1.278673 2.163908c2.852424 4.917972 0.196719 11.901492-5.704848 15.737509zM488.098657 358.106627l-21.835794 14.163758c-5.901566 3.836018-13.081805 3.049142-15.835869-1.67211l-1.278673-2.163908c-2.754064-4.721253-0.196719-11.901492 5.704847-15.737509l21.835795-14.163759c5.901566-3.836018 13.081805-3.049142 15.835869 1.672111l1.278673 2.163907c2.852424 4.917972 0.295078 11.803132-5.704848 15.73751zM537.966891 325.746373l-21.835795 14.163758c-5.901566 3.836018-13.081805 3.049142-15.835869-1.67211l-1.278672-2.163908c-2.754064-4.721253-0.196719-11.901492 5.704847-15.737509l21.835794-14.163759c5.901566-3.836018 13.081805-3.049142 15.835869 1.672111l1.278673 2.163907c2.754064 4.819612 0.196719 11.901492-5.704847 15.73751zM587.835124 293.386119l-21.835794 14.163758c-5.901566 3.836018-13.081805 3.049142-15.835869-1.67211l-1.278673-2.163908c-2.754064-4.721253-0.196719-11.901492 5.704847-15.737509l21.835795-14.163759c5.901566-3.836018 13.081805-3.049142 15.835869 1.672111l1.278672 2.163907c2.754064 4.819612 0.196719 11.901492-5.704847 15.73751z" fill="#FED15A" p-id="1738"></path><path d="M253.511405 544.399396L231.675611 558.563155c-5.901566 3.836018-13.081805 3.049142-15.835869-1.672111l-1.278673-2.163907c-2.754064-4.721253-0.196719-11.901492 5.704848-15.73751l21.835794-14.163758c5.901566-3.836018 13.081805-3.049142 15.835869 1.67211l1.278673 2.163908c2.852424 4.819612 0.196719 11.901492-5.704848 15.737509zM303.281279 512.137502L281.445485 526.30126c-5.901566 3.836018-13.081805 3.049142-15.835869-1.67211l-1.278673-2.163908c-2.754064-4.721253-0.196719-11.901492 5.704848-15.737509l21.835794-14.163759c5.901566-3.836018 13.081805-3.049142 15.835869 1.67211l1.278673 2.163908c2.852424 4.819612 0.196719 11.901492-5.704848 15.73751zM353.149513 479.777248l-21.835795 14.163758c-5.901566 3.836018-13.081805 3.049142-15.835869-1.67211l-1.278672-2.163908c-2.754064-4.721253-0.196719-11.901492 5.704847-15.737509l21.835794-14.163759c5.901566-3.836018 13.081805-3.049142 15.835869 1.67211l1.278673 2.163908c2.754064 4.721253 0.196719 11.901492-5.704847 15.73751zM402.919387 447.515353l-21.835795 14.163759c-5.901566 3.836018-13.081805 3.049142-15.835869-1.672111l-1.278672-2.163907c-2.754064-4.721253-0.196719-11.901492 5.704847-15.73751l21.934154-14.262118c5.901566-3.836018 13.081805-3.049142 15.835869 1.67211l1.278673 2.163908c2.655705 4.819612 0.196719 11.901492-5.803207 15.835869zM452.78762 415.155099l-21.835794 14.163759c-5.901566 3.836018-13.081805 3.049142-15.835869-1.672111l-1.278673-2.163907c-2.754064-4.721253-0.196719-11.901492 5.704847-15.73751l21.835795-14.163759c5.901566-3.836018 13.081805-3.049142 15.835869 1.672111l1.278672 2.163907c2.754064 4.721253 0.196719 11.901492-5.704847 15.73751zM502.655854 382.794845l-21.835795 14.163758c-5.901566 3.836018-13.081805 3.049142-15.835869-1.67211l-1.278672-2.163907c-2.754064-4.721253-0.196719-11.901492 5.704847-15.73751l21.835794-14.163759c5.901566-3.836018 13.081805-3.049142 15.835869 1.672111l1.278673 2.163907c2.754064 4.819612 0.196719 11.901492-5.704847 15.73751zM552.327368 350.434591l-21.835794 14.163758c-5.901566 3.836018-13.081805 3.049142-15.835869-1.67211l-1.278673-2.163908c-2.754064-4.721253-0.196719-11.901492 5.704847-15.737509l21.835795-14.163759c5.901566-3.836018 13.081805-3.049142 15.835869 1.672111l1.278672 2.163907c2.852424 4.819612 0.295078 11.803132-5.704847 15.73751zM602.195602 318.074337l-21.835795 14.163758c-5.901566 3.836018-13.081805 3.049142-15.835869-1.67211l-1.278672-2.163908c-2.754064-4.721253-0.196719-11.901492 5.704847-15.737509l21.835794-14.163759c5.901566-3.836018 13.081805-3.049142 15.835869 1.672111l1.278673 2.163907c2.852424 4.819612 0.196719 11.901492-5.704847 15.73751z" fill="#FED15A" p-id="1739"></path><path d="M267.871883 569.087614l-21.835795 14.163759c-5.901566 3.836018-13.081805 3.049142-15.835869-1.67211l-1.278672-2.163908c-2.754064-4.721253-0.196719-11.901492 5.704847-15.73751l21.835795-14.163758c5.901566-3.836018 13.081805-3.049142 15.835869 1.67211l1.278672 2.163908c2.852424 4.819612 0.196719 11.901492-5.704847 15.737509zM317.641757 536.82572l-21.835795 14.163758c-5.901566 3.836018-13.081805 3.049142-15.835869-1.67211l-1.278672-2.163908c-2.754064-4.721253-0.196719-11.901492 5.704847-15.737509l21.835795-14.163759c5.901566-3.836018 13.081805-3.049142 15.835869 1.672111l1.278672 2.163907c2.852424 4.819612 0.295078 11.803132-5.704847 15.73751zM367.50999 504.367106l-21.835794 14.163759c-5.901566 3.836018-13.081805 3.049142-15.835869-1.672111l-1.278673-2.163907c-2.754064-4.721253-0.196719-11.901492 5.704847-15.73751l21.835795-14.163758c5.901566-3.836018 13.081805-3.049142 15.835869 1.67211l1.278673 2.163908c2.852424 4.917972 0.196719 11.999851-5.704848 15.737509zM417.378224 472.006852l-21.835795 14.163759c-5.901566 3.836018-13.081805 3.049142-15.835869-1.672111l-1.278672-2.163907c-2.754064-4.721253-0.196719-11.901492 5.704847-15.73751l21.835794-14.163758c5.901566-3.836018 13.081805-3.049142 15.835869 1.67211l1.278673 2.163908c2.852424 4.917972 0.196719 11.999851-5.704847 15.737509zM467.148098 439.744958l-21.835795 14.163758c-5.901566 3.836018-13.081805 3.049142-15.835869-1.67211l-1.278672-2.163908c-2.754064-4.721253-0.196719-11.901492 5.704847-15.737509l21.835794-14.163759c5.901566-3.836018 13.081805-3.049142 15.835869 1.67211l1.278673 2.163908c2.852424 4.917972 0.295078 11.901492-5.704847 15.73751zM517.016331 407.384704l-21.835794 14.163758c-5.901566 3.836018-13.081805 3.049142-15.835869-1.67211l-1.278673-2.163908c-2.754064-4.721253-0.196719-11.901492 5.704847-15.737509l21.835795-14.163759c5.901566-3.836018 13.081805-3.049142 15.835869 1.67211l1.278672 2.163908c2.852424 4.917972 0.196719 11.999851-5.704847 15.73751zM566.786205 375.122809l-21.835794 14.163759c-5.901566 3.836018-13.081805 3.049142-15.835869-1.672111l-1.278673-2.163907c-2.754064-4.721253-0.196719-11.901492 5.704847-15.73751l21.835795-14.163759c5.901566-3.836018 13.081805-3.049142 15.835869 1.672111l1.278672 2.163907c2.852424 4.721253 0.295078 11.901492-5.704847 15.73751zM616.654439 342.762555l-21.835795 14.163759c-5.901566 3.836018-13.081805 3.049142-15.835869-1.672111l-1.278673-2.163907c-2.754064-4.721253-0.196719-11.901492 5.704848-15.73751l21.835794-14.163759c5.901566-3.836018 13.081805-3.049142 15.835869 1.672111l1.278673 2.163907c2.754064 4.819612 0.196719 11.999851-5.704847 15.73751z" fill="#FED15A" p-id="1740"></path><path d="M282.23236 593.775832L260.494925 607.939591c-5.901566 3.836018-13.081805 3.049142-15.835869-1.67211l-1.278672-2.163908c-2.754064-4.721253-0.196719-11.901492 5.704847-15.737509l21.835794-14.163759c5.901566-3.836018 13.081805-3.049142 15.835869 1.67211l1.278673 2.163908c2.754064 4.819612 0.098359 11.901492-5.803207 15.737509zM332.100594 561.415578L310.363159 575.579337c-5.901566 3.836018-13.081805 3.049142-15.835869-1.67211l-1.278673-2.163908c-2.754064-4.721253-0.196719-11.901492 5.704847-15.73751l21.835795-14.163758c5.901566-3.836018 13.081805-3.049142 15.835869 1.67211l1.278672 2.163908c2.754064 4.917972 0.098359 11.901492-5.803206 15.737509zM381.870468 529.153684l-21.835795 14.163758c-5.901566 3.836018-13.081805 3.049142-15.835869-1.67211l-1.278672-2.163908c-2.754064-4.721253-0.196719-11.901492 5.704847-15.737509l21.835794-14.163759c5.901566-3.836018 13.081805-3.049142 15.835869 1.672111l1.278673 2.163907c2.852424 4.819612 0.295078 11.803132-5.704847 15.73751zM431.738701 496.79343l-21.835794 14.163758c-5.901566 3.836018-13.081805 3.049142-15.835869-1.67211l-1.278673-2.163908c-2.754064-4.721253-0.196719-11.901492 5.704847-15.737509l21.835795-14.163759c5.901566-3.836018 13.081805-3.049142 15.835869 1.672111l1.278672 2.163907c2.852424 4.819612 0.196719 11.901492-5.704847 15.73751zM481.508575 464.531535l-21.835794 14.163759c-5.901566 3.836018-13.081805 3.049142-15.835869-1.672111l-1.278673-2.163907c-2.754064-4.721253-0.196719-11.901492 5.704847-15.73751l21.835795-14.163758c5.901566-3.836018 13.081805-3.049142 15.835869 1.67211l1.278672 2.163908c2.950783 4.721253 0.295078 11.803132-5.704847 15.737509zM531.376809 432.171281l-21.835795 14.163759c-5.901566 3.836018-13.081805 3.049142-15.835869-1.672111l-1.278673-2.163907c-2.754064-4.721253-0.196719-11.901492 5.704848-15.73751l21.835794-14.163758c5.901566-3.836018 13.081805-3.049142 15.835869 1.67211l1.278673 2.163908c2.852424 4.819612 0.196719 11.901492-5.704847 15.737509zM581.245042 399.712668l-21.835794 14.163758c-5.901566 3.836018-13.081805 3.049142-15.835869-1.67211l-1.278673-2.163908c-2.754064-4.721253-0.196719-11.901492 5.704847-15.737509l21.835795-14.163759c5.901566-3.836018 13.081805-3.049142 15.835869 1.672111l1.278672 2.163907c2.852424 4.917972 0.196719 11.901492-5.704847 15.73751zM631.014916 367.450773l-21.835794 14.163759c-5.901566 3.836018-13.081805 3.049142-15.835869-1.672111l-1.278673-2.163907c-2.754064-4.721253-0.196719-11.901492 5.704847-15.73751l21.835795-14.163758c5.901566-3.836018 13.081805-3.049142 15.835869 1.67211l1.278672 2.163907c2.852424 4.917972 0.295078 11.803132-5.704847 15.73751z" fill="#FED15A" p-id="1741"></path><path d="M296.691197 618.464051l-21.835794 14.163758c-5.901566 3.836018-13.081805 3.049142-15.835869-1.67211l-1.278673-2.163908c-2.754064-4.721253-0.196719-11.901492 5.704847-15.737509l21.835795-14.163759c5.901566-3.836018 13.081805-3.049142 15.835869 1.67211l1.278673 2.163908c2.754064 4.819612 0.295078 11.901492-5.704848 15.73751zM346.559431 586.202156l-21.835795 14.163759c-5.901566 3.836018-13.081805 3.049142-15.835869-1.672111l-1.278672-2.163907c-2.754064-4.721253-0.196719-11.901492 5.704847-15.73751l21.835794-14.163759c5.901566-3.836018 13.081805-3.049142 15.835869 1.672111l1.278673 2.163907c2.754064 4.721253 0.196719 11.901492-5.704847 15.73751zM396.230945 553.841902l-21.835794 14.163759c-5.901566 3.836018-13.081805 3.049142-15.835869-1.672111l-1.278673-2.163907c-2.754064-4.721253-0.196719-11.901492 5.704847-15.73751l21.835795-14.163759c5.901566-3.836018 13.081805-3.049142 15.835869 1.672111l1.278673 2.163907c2.950783 4.721253 0.295078 11.803132-5.704848 15.73751zM446.099179 521.481648l-21.835795 14.163758c-5.901566 3.836018-13.081805 3.049142-15.835869-1.67211l-1.278672-2.163907c-2.754064-4.721253-0.196719-11.901492 5.704847-15.73751l21.835794-14.163759c5.901566-3.836018 13.081805-3.049142 15.835869 1.672111l1.278673 2.163907c2.852424 4.819612 0.196719 11.901492-5.704847 15.73751zM495.967412 489.121394l-21.835794 14.163758c-5.901566 3.836018-13.081805 3.049142-15.835869-1.67211l-1.278673-2.163908c-2.754064-4.721253-0.196719-11.901492 5.704847-15.737509l21.835795-14.163759c5.901566-3.836018 13.081805-3.049142 15.835869 1.672111l1.278672 2.163907c2.852424 4.819612 0.196719 11.901492-5.704847 15.73751zM545.737286 456.859499l-21.835794 14.163759c-5.901566 3.836018-13.081805 3.049142-15.835869-1.672111l-1.278673-2.163907c-2.754064-4.721253-0.196719-11.901492 5.704847-15.73751l21.835795-14.163758c5.901566-3.836018 13.081805-3.049142 15.835869 1.67211l1.278672 2.163908c2.852424 4.721253 0.295078 11.803132-5.704847 15.737509zM595.60552 424.499245l-21.835795 14.163759c-5.901566 3.836018-13.081805 3.049142-15.835869-1.672111l-1.278673-2.163907c-2.754064-4.721253-0.196719-11.901492 5.704848-15.73751l21.835794-14.163758c5.901566-3.836018 13.081805-3.049142 15.835869 1.67211l1.278673 2.163908c2.852424 4.721253 0.196719 11.901492-5.704847 15.737509zM645.473753 392.138991L623.736318 406.30275c-5.901566 3.836018-13.081805 3.049142-15.835869-1.672111l-1.278673-2.163907c-2.754064-4.721253-0.196719-11.901492 5.704847-15.73751l21.835795-14.163758c5.901566-3.836018 13.081805-3.049142 15.835869 1.67211l1.278673 2.163908c2.754064 4.819612 0.098359 11.901492-5.803207 15.737509z" fill="#FED15A" p-id="1742"></path><path d="M311.051675 643.152269l-21.835795 14.163758c-5.901566 3.836018-13.081805 3.049142-15.835869-1.67211l-1.278672-2.163908c-2.754064-4.721253-0.196719-11.901492 5.704847-15.737509l21.835794-14.163759c5.901566-3.836018 13.081805-3.049142 15.835869 1.672111l1.278673 2.163907c2.950783 4.819612 0.295078 11.803132-5.704847 15.73751zM360.919908 610.792015l-21.835794 14.163758c-5.901566 3.836018-13.081805 3.049142-15.835869-1.67211l-1.278673-2.163908c-2.754064-4.721253-0.196719-11.901492 5.704847-15.737509l21.835795-14.163759c5.901566-3.836018 13.081805-3.049142 15.835869 1.67211l1.278672 2.163908c2.754064 4.819612 0.196719 11.901492-5.704847 15.73751zM410.788142 578.431761l-21.835795 14.163758c-5.901566 3.836018-13.081805 3.049142-15.835869-1.67211l-1.278673-2.163908c-2.754064-4.721253-0.196719-11.901492 5.704848-15.737509l21.835794-14.163759c5.901566-3.836018 13.081805-3.049142 15.835869 1.67211l1.278673 2.163908c2.754064 4.819612 0.196719 11.901492-5.704847 15.73751zM460.558016 546.169866l-21.835795 14.163759c-5.901566 3.836018-13.081805 3.049142-15.835869-1.672111l-1.278673-2.163907c-2.754064-4.721253-0.196719-11.901492 5.704848-15.73751l21.835794-14.163759c5.901566-3.836018 13.081805-3.049142 15.835869 1.672111l1.278673 2.163907c2.754064 4.819612 0.295078 11.803132-5.704847 15.73751zM510.426249 513.809612l-21.835794 14.163759c-5.901566 3.836018-13.081805 3.049142-15.835869-1.672111l-1.278673-2.163907c-2.754064-4.721253-0.196719-11.901492 5.704847-15.73751l21.835795-14.163759c5.901566-3.836018 13.081805-3.049142 15.835869 1.672111l1.278672 2.163907c2.754064 4.819612 0.196719 11.901492-5.704847 15.73751zM560.196123 481.350998l-21.835794 14.163759c-5.901566 3.836018-13.081805 3.049142-15.835869-1.67211l-1.278673-2.163908c-2.754064-4.721253-0.196719-11.901492 5.704847-15.737509l21.835795-14.163759c5.901566-3.836018 13.081805-3.049142 15.835869 1.67211l1.278672 2.163908c2.852424 4.917972 0.196719 11.999851-5.704847 15.737509zM609.965997 449.089104L588.228562 463.351222c-5.901566 3.836018-13.081805 3.049142-15.835869-1.67211l-1.278673-2.163908c-2.754064-4.721253-0.196719-11.901492 5.704847-15.73751l21.835795-14.163758c5.901566-3.836018 13.081805-3.049142 15.835869 1.67211l1.278673 2.163908c2.754064 4.819612 0.196719 11.803132-5.803207 15.63915zM659.83423 416.72885L637.998436 430.892608c-5.901566 3.836018-13.081805 3.049142-15.835869-1.67211l-1.278673-2.163907c-2.754064-4.721253-0.196719-11.901492 5.704847-15.73751l21.835795-14.163759c5.901566-3.836018 13.081805-3.049142 15.835869 1.672111l1.278673 2.163907c2.852424 4.917972 0.196719 11.999851-5.704848 15.73751z" fill="#FED15A" p-id="1743"></path><path d="M325.608871 667.840487l-21.835794 14.163758c-5.901566 3.836018-13.081805 3.049142-15.835869-1.67211l-1.278673-2.163908c-2.754064-4.721253-0.196719-11.901492 5.704847-15.737509l21.835795-14.163759c5.901566-3.836018 13.081805-3.049142 15.835869 1.672111l1.278672 2.163907c2.754064 4.819612 0.196719 11.901492-5.704847 15.73751zM375.280386 635.480233l-21.835795 14.163758c-5.901566 3.836018-13.081805 3.049142-15.835869-1.67211l-1.278672-2.163908c-2.754064-4.721253-0.196719-11.901492 5.704847-15.737509l21.835794-14.163759c5.901566-3.836018 13.081805-3.049142 15.835869 1.672111l1.278673 2.163907c2.852424 4.819612 0.295078 11.803132-5.704847 15.73751zM425.148619 603.119979l-21.835794 14.163758c-5.901566 3.836018-13.081805 3.049142-15.835869-1.67211l-1.278673-2.163908c-2.754064-4.721253-0.196719-11.901492 5.704847-15.737509l21.835795-14.163759c5.901566-3.836018 13.081805-3.049142 15.835869 1.672111l1.278672 2.163907c2.852424 4.819612 0.196719 11.901492-5.704847 15.73751zM475.016853 570.759725l-21.835795 14.163758c-5.901566 3.836018-13.081805 3.049142-15.835869-1.67211l-1.278673-2.163908c-2.754064-4.721253-0.196719-11.901492 5.704848-15.737509l21.835794-14.163759c5.901566-3.836018 13.081805-3.049142 15.835869 1.672111l1.278673 2.163907c2.852424 4.917972 0.196719 11.901492-5.704847 15.73751zM524.786727 538.49783l-21.835795 14.163759c-5.901566 3.836018-13.081805 3.049142-15.835869-1.672111l-1.278673-2.163907c-2.754064-4.721253-0.196719-11.901492 5.704848-15.73751l21.835794-14.163758c5.901566-3.836018 13.081805-3.049142 15.835869 1.67211l1.278673 2.163908c2.754064 4.819612 0.295078 11.803132-5.704847 15.737509zM574.65496 506.137576l-21.835795 14.163759c-5.901566 3.836018-13.081805 3.049142-15.835869-1.672111l-1.278672-2.163907c-2.754064-4.721253-0.196719-11.901492 5.704847-15.73751l21.835795-14.163758c5.901566-3.836018 13.081805-3.049142 15.835868 1.67211l1.278673 2.163907c2.754064 4.819612 0.196719 11.901492-5.704847 15.73751zM624.424834 473.875681l-21.835795 14.163759c-5.901566 3.836018-13.081805 3.049142-15.835869-1.67211l-1.278672-2.163908c-2.754064-4.721253-0.196719-11.901492 5.704847-15.737509l21.835794-14.163759c5.901566-3.836018 13.081805-3.049142 15.835869 1.67211l1.278673 2.163908c2.852424 4.721253 0.295078 11.803132-5.704847 15.737509zM674.293067 441.515427l-21.835794 14.163759c-5.901566 3.836018-13.081805 3.049142-15.835869-1.67211l-1.278673-2.163908c-2.754064-4.721253-0.196719-11.901492 5.704847-15.737509l21.835795-14.163759c5.901566-3.836018 13.081805-3.049142 15.835869 1.67211l1.278673 2.163908c2.754064 4.819612 0.196719 11.901492-5.704848 15.737509z" fill="#FED15A" p-id="1744"></path><path d="M339.969349 692.430345l-21.835795 14.163759c-5.901566 3.836018-13.081805 3.049142-15.835869-1.67211l-1.278673-2.163908c-2.754064-4.721253-0.196719-11.901492 5.704848-15.737509l21.835794-14.163759c5.901566-3.836018 13.081805-3.049142 15.835869 1.67211l1.278673 2.163908c2.754064 4.819612 0.196719 11.999851-5.704847 15.737509zM389.837582 660.168451l-21.835794 14.163758c-5.901566 3.836018-13.081805 3.049142-15.835869-1.67211l-1.278673-2.163907c-2.754064-4.721253-0.196719-11.901492 5.704847-15.73751l21.835795-14.163759c5.901566-3.836018 13.081805-3.049142 15.835869 1.672111l1.278672 2.163907c2.754064 4.721253 0.196719 11.901492-5.704847 15.73751zM439.607456 627.808197l-21.835794 14.163758c-5.901566 3.836018-13.081805 3.049142-15.835869-1.67211l-1.278673-2.163908c-2.754064-4.721253-0.196719-11.901492 5.704847-15.737509l21.835795-14.163759c5.901566-3.836018 13.081805-3.049142 15.835869 1.672111l1.278672 2.163907c2.754064 4.819612 0.295078 11.901492-5.704847 15.73751zM489.475689 595.546302l-21.835794 14.163759c-5.901566 3.836018-13.081805 3.049142-15.835869-1.672111l-1.278673-2.163907c-2.754064-4.721253-0.196719-11.901492 5.704847-15.73751l21.835795-14.163758c5.901566-3.836018 13.081805-3.049142 15.835869 1.67211l1.278673 2.163908c2.754064 4.721253 0.196719 11.901492-5.704848 15.737509zM539.245563 563.186048L517.409769 577.448166c-5.901566 3.836018-13.081805 3.049142-15.835869-1.67211l-1.278673-2.163908c-2.754064-4.721253-0.196719-11.901492 5.704847-15.737509l21.835795-14.163759c5.901566-3.836018 13.081805-3.049142 15.835869 1.672111l1.278673 2.163907c2.754064 4.721253 0.295078 11.803132-5.704848 15.63915zM589.015437 530.825794L567.278002 544.989553c-5.901566 3.836018-13.081805 3.049142-15.835869-1.672111l-1.278672-2.163907c-2.754064-4.721253-0.196719-11.901492 5.704847-15.73751l21.835794-14.163758c5.901566-3.836018 13.081805-3.049142 15.835869 1.67211l1.278673 2.163908c2.754064 4.819612 0.098359 11.901492-5.803207 15.737509zM638.883671 498.46554l-21.835795 14.163759c-5.901566 3.836018-13.081805 3.049142-15.835869-1.672111l-1.278672-2.163907c-2.754064-4.721253-0.196719-11.901492 5.704847-15.73751l21.835794-14.163758c5.901566-3.836018 13.081805-3.049142 15.835869 1.67211l1.278673 2.163908c2.852424 4.819612 0.196719 11.901492-5.704847 15.737509zM688.653545 466.203646l-21.835795 14.163758c-5.901566 3.836018-13.081805 3.049142-15.835869-1.67211l-1.278672-2.163908c-2.754064-4.721253-0.196719-11.901492 5.704847-15.737509L677.24385 446.630118c5.901566-3.836018 13.081805-3.049142 15.835869 1.67211l1.278673 2.163908c2.852424 4.819612 0.295078 11.803132-5.704847 15.73751z" fill="#FED15A" p-id="1745"></path><path d="M354.329826 717.216923l-21.835794 14.163759c-5.901566 3.836018-13.081805 3.049142-15.835869-1.672111l-1.278673-2.163907c-2.754064-4.721253-0.196719-11.901492 5.704847-15.73751l21.835795-14.163758c5.901566-3.836018 13.081805-3.049142 15.835869 1.67211l1.278672 2.163907c2.852424 4.819612 0.295078 11.803132-5.704847 15.73751zM404.19806 684.75831l-21.835795 14.163758c-5.901566 3.836018-13.081805 3.049142-15.835869-1.67211l-1.278673-2.163908c-2.754064-4.721253-0.196719-11.901492 5.704848-15.737509l21.835794-14.163759c5.901566-3.836018 13.081805-3.049142 15.835869 1.67211l1.278673 2.163908c2.852424 4.917972 0.196719 11.901492-5.704847 15.73751zM453.967933 652.496415l-21.835794 14.163759c-5.901566 3.836018-13.081805 3.049142-15.835869-1.672111l-1.278673-2.163907c-2.754064-4.721253-0.196719-11.901492 5.704848-15.73751l21.835794-14.163759c5.901566-3.836018 13.081805-3.049142 15.835869 1.672111l1.278673 2.163907c2.852424 4.917972 0.295078 11.803132-5.704848 15.73751zM503.836167 620.136161l-21.835795 14.163759c-5.901566 3.836018-13.081805 3.049142-15.835869-1.672111l-1.278672-2.163907c-2.754064-4.721253-0.196719-11.901492 5.704847-15.73751l21.835794-14.163759c5.901566-3.836018 13.081805-3.049142 15.835869 1.672111l1.278673 2.163907c2.852424 4.917972 0.196719 11.901492-5.704847 15.73751zM553.7044 587.775907l-21.835794 14.163758c-5.901566 3.836018-13.081805 3.049142-15.835869-1.67211l-1.278673-2.163907c-2.754064-4.721253-0.196719-11.901492 5.704847-15.73751l21.835795-14.163759c5.901566-3.836018 13.081805-3.049142 15.835869 1.672111l1.278673 2.163907c2.754064 4.819612 0.196719 11.901492-5.704848 15.73751zM603.474274 555.514012l-21.835794 14.163759c-5.901566 3.836018-13.081805 3.049142-15.835869-1.67211l-1.278673-2.163908c-2.754064-4.721253-0.196719-11.901492 5.704847-15.73751l21.835795-14.163758c5.901566-3.836018 13.081805-3.049142 15.835869 1.67211l1.278673 2.163908c2.754064 4.819612 0.295078 11.803132-5.704848 15.737509zM653.342508 523.153758l-21.835795 14.163759c-5.901566 3.836018-13.081805 3.049142-15.835869-1.672111l-1.278672-2.163907c-2.754064-4.721253-0.196719-11.901492 5.704847-15.73751L641.834454 503.67859c5.901566-3.836018 13.081805-3.049142 15.835869 1.672111l1.278673 2.163907c2.852424 4.721253 0.295078 11.803132-5.606488 15.63915zM703.210741 490.793504l-21.835794 14.163759c-5.901566 3.836018-13.081805 3.049142-15.835869-1.672111l-1.278673-2.163907c-2.754064-4.721253-0.196719-11.901492 5.704847-15.73751l21.835795-14.163758c5.901566-3.836018 13.081805-3.049142 15.835869 1.67211l1.278672 2.163908c2.754064 4.819612 0.196719 11.901492-5.704847 15.737509z" fill="#FED15A" p-id="1746"></path><path d="M368.690304 741.905141l-21.835795 14.163759c-5.901566 3.836018-13.081805 3.049142-15.835869-1.672111l-1.278673-2.163907c-2.754064-4.721253-0.196719-11.901492 5.704848-15.73751l21.835794-14.163758c5.901566-3.836018 13.081805-3.049142 15.835869 1.67211l1.278673 2.163908c2.852424 4.721253 0.295078 11.803132-5.704847 15.737509zM418.558537 709.544887l-21.835795 14.163759c-5.901566 3.836018-13.081805 3.049142-15.835869-1.672111l-1.278672-2.163907c-2.754064-4.721253-0.196719-11.901492 5.704847-15.73751l21.835795-14.163758c5.901566-3.836018 13.081805-3.049142 15.835869 1.67211l1.278672 2.163908c2.852424 4.721253 0.196719 11.901492-5.704847 15.737509zM468.42677 677.184633l-21.835794 14.163759c-5.901566 3.836018-13.081805 3.049142-15.835869-1.672111l-1.278673-2.163907c-2.754064-4.721253-0.196719-11.901492 5.704847-15.73751l21.835795-14.163758c5.901566-3.836018 13.081805-3.049142 15.835869 1.67211l1.278673 2.163908c2.852424 4.819612 0.196719 11.901492-5.704848 15.737509zM518.196644 644.922738L496.459209 659.086497c-5.901566 3.836018-13.081805 3.049142-15.835869-1.67211l-1.278672-2.163908c-2.754064-4.721253-0.196719-11.901492 5.704847-15.737509l21.835794-14.163759c5.901566-3.836018 13.081805-3.049142 15.835869 1.67211l1.278673 2.163908c2.754064 4.721253 0.196719 11.803132-5.803207 15.737509zM568.064878 612.464125L546.229083 626.627884c-5.901566 3.836018-13.081805 3.049142-15.835869-1.672111l-1.278672-2.163907c-2.754064-4.721253-0.196719-11.901492 5.704847-15.73751l21.835794-14.163759c5.901566-3.836018 13.081805-3.049142 15.835869 1.672111l1.278673 2.163907c2.852424 4.819612 0.196719 11.901492-5.704847 15.73751zM617.933111 580.103871l-21.835794 14.163759c-5.901566 3.836018-13.081805 3.049142-15.835869-1.672111l-1.278673-2.163907c-2.754064-4.721253-0.196719-11.901492 5.704847-15.73751l21.835795-14.163759c5.901566-3.836018 13.081805-3.049142 15.835869 1.672111l1.278672 2.163907c2.852424 4.917972 0.196719 11.901492-5.704847 15.73751zM667.702985 547.841976l-21.835794 14.163759c-5.901566 3.836018-13.081805 3.049142-15.835869-1.67211l-1.278673-2.163908c-2.754064-4.721253-0.196719-11.901492 5.704847-15.73751l21.835795-14.163758c5.901566-3.836018 13.081805-3.049142 15.835869 1.67211l1.278672 2.163908c2.852424 4.819612 0.196719 11.901492-5.704847 15.737509zM717.571219 515.481722l-21.835795 14.163759c-5.901566 3.836018-13.081805 3.049142-15.835869-1.67211l-1.278673-2.163908c-2.754064-4.721253-0.196719-11.901492 5.704848-15.73751l21.835794-14.163758c5.901566-3.836018 13.081805-3.049142 15.835869 1.67211l1.278673 2.163908c2.754064 4.819612 0.196719 11.901492-5.704847 15.737509z" fill="#FED15A" p-id="1747"></path><path d="M383.14914 766.39664l-21.835794 14.163759c-5.901566 3.836018-13.081805 3.049142-15.835869-1.67211l-1.278673-2.163908c-2.754064-4.721253-0.196719-11.901492 5.704848-15.73751l21.835794-14.163758c5.901566-3.836018 13.081805-3.049142 15.835869 1.67211l1.278673 2.163908c2.852424 4.917972 0.196719 11.999851-5.704848 15.737509zM432.919014 734.134746l-21.835794 14.163758c-5.901566 3.836018-13.081805 3.049142-15.835869-1.67211l-1.278673-2.163908c-2.754064-4.721253-0.196719-11.901492 5.704848-15.737509l21.835794-14.163759c5.901566-3.836018 13.081805-3.049142 15.835869 1.672111l1.278673 2.163907c2.852424 4.917972 0.295078 11.901492-5.704848 15.73751zM482.787248 701.774492l-21.835795 14.163758c-5.901566 3.836018-13.081805 3.049142-15.835869-1.67211l-1.278672-2.163908c-2.754064-4.721253-0.196719-11.901492 5.704847-15.737509l21.835794-14.163759c5.901566-3.836018 13.081805-3.049142 15.835869 1.672111l1.278673 2.163907c2.852424 4.917972 0.196719 11.999851-5.704847 15.73751zM532.655481 669.512597L510.918046 683.676356c-5.901566 3.836018-13.081805 3.049142-15.835869-1.672111l-1.278672-2.163907c-2.754064-4.721253-0.196719-11.901492 5.704847-15.73751l21.835794-14.163758c5.901566-3.836018 13.081805-3.049142 15.835869 1.67211l1.278673 2.163908c2.754064 4.721253 0.098359 11.901492-5.803207 15.737509zM582.425355 637.152343l-21.835794 14.163759c-5.901566 3.836018-13.081805 3.049142-15.835869-1.672111l-1.278673-2.163907c-2.754064-4.721253-0.196719-11.901492 5.704847-15.73751l21.835795-14.163758c5.901566-3.836018 13.081805-3.049142 15.835869 1.67211l1.278672 2.163908c2.852424 4.819612 0.196719 11.999851-5.704847 15.737509zM632.293589 604.890449l-21.835795 14.163758c-5.901566 3.836018-13.081805 3.049142-15.835869-1.67211l-1.278672-2.163908c-2.754064-4.721253-0.196719-11.901492 5.704847-15.737509l21.835794-14.163759c5.901566-3.836018 13.081805-3.049142 15.835869 1.67211l1.278673 2.163908c2.852424 4.721253 0.196719 11.901492-5.704847 15.73751zM682.063463 572.530195l-21.835795 14.163758c-5.901566 3.836018-13.081805 3.049142-15.835869-1.67211l-1.278672-2.163908c-2.754064-4.721253-0.196719-11.901492 5.704847-15.737509l21.835794-14.163759c5.901566-3.836018 13.081805-3.049142 15.835869 1.67211l1.278673 2.163908c2.852424 4.819612 0.295078 11.901492-5.704847 15.73751zM731.931696 540.16994l-21.835794 14.163759c-5.901566 3.836018-13.081805 3.049142-15.835869-1.67211l-1.278673-2.163908c-2.754064-4.721253-0.196719-11.901492 5.704847-15.737509l21.835795-14.163759c5.901566-3.836018 13.081805-3.049142 15.835869 1.67211l1.278672 2.163908c2.852424 4.819612 0.196719 11.901492-5.704847 15.737509z" fill="#FED15A" p-id="1748"></path><path d="M397.607977 791.183218l-21.835794 14.163759c-5.901566 3.836018-13.081805 3.049142-15.835869-1.672111l-1.278673-2.163907c-2.754064-4.721253-0.196719-11.901492 5.704847-15.73751l21.835795-14.163759c5.901566-3.836018 13.081805-3.049142 15.835869 1.672111l1.278673 2.163907c2.754064 4.819612 0.196719 11.901492-5.704848 15.73751zM447.476211 758.822964l-21.835795 14.163759c-5.901566 3.836018-13.081805 3.049142-15.835869-1.672111l-1.278672-2.163907c-2.754064-4.721253-0.196719-11.901492 5.704847-15.73751l21.835794-14.163759c5.901566-3.836018 13.081805-3.049142 15.835869 1.672111l1.278673 2.163907c2.754064 4.819612 0.196719 11.901492-5.704847 15.73751zM497.246085 726.561069L475.41029 740.724828c-5.901566 3.836018-13.081805 3.049142-15.835869-1.67211l-1.278672-2.163908c-2.754064-4.721253-0.196719-11.901492 5.704847-15.73751l21.835794-14.163758c5.901566-3.836018 13.081805-3.049142 15.835869 1.67211l1.278673 2.163908c2.754064 4.819612 0.196719 11.901492-5.704847 15.737509zM547.015959 694.102456L525.278524 708.266214c-5.901566 3.836018-13.081805 3.049142-15.835869-1.67211l-1.278673-2.163907c-2.754064-4.721253-0.196719-11.901492 5.704847-15.73751l21.835795-14.163759c5.901566-3.836018 13.081805-3.049142 15.835869 1.672111l1.278672 2.163907c2.754064 4.917972 0.098359 11.901492-5.803206 15.73751zM596.785833 661.840561L574.950038 676.00432c-5.901566 3.836018-13.081805 3.049142-15.835869-1.672111l-1.278672-2.163907c-2.754064-4.721253-0.196719-11.901492 5.704847-15.73751l21.835794-14.163758c5.901566-3.836018 13.081805-3.049142 15.835869 1.67211l1.278673 2.163908c2.852424 4.917972 0.295078 11.803132-5.704847 15.737509zM646.654066 629.480307l-21.835794 14.163759c-5.901566 3.836018-13.081805 3.049142-15.835869-1.672111l-1.278673-2.163907c-2.754064-4.721253-0.196719-11.901492 5.704847-15.73751l21.835795-14.163758c5.901566-3.836018 13.081805-3.049142 15.835869 1.67211l1.278672 2.163908c2.852424 4.917972 0.196719 11.901492-5.704847 15.737509zM696.5223 597.120053l-21.835795 14.163759c-5.901566 3.836018-13.081805 3.049142-15.835869-1.672111l-1.278673-2.163907c-2.754064-4.721253-0.196719-11.901492 5.704848-15.73751l21.835794-14.163758c5.901566-3.836018 13.081805-3.049142 15.835869 1.67211l1.278673 2.163908c2.852424 4.917972 0.196719 11.901492-5.704847 15.737509zM746.292174 564.858159L724.456379 579.021917c-5.901566 3.836018-13.081805 3.049142-15.835869-1.67211l-1.278673-2.163908c-2.754064-4.721253-0.196719-11.901492 5.704848-15.737509l21.835794-14.163759c5.901566-3.836018 13.081805-3.049142 15.835869 1.67211l1.278673 2.163908c2.852424 4.819612 0.393438 11.803132-5.704847 15.73751z" fill="#FED15A" p-id="1749"></path><path d="M411.968455 815.871436l-21.835795 14.163759c-5.901566 3.836018-13.081805 3.049142-15.835869-1.672111l-1.278672-2.163907c-2.754064-4.721253-0.196719-11.901492 5.704847-15.73751l21.835794-14.163758c5.901566-3.836018 13.081805-3.049142 15.835869 1.67211l1.278673 2.163908c2.852424 4.819612 0.196719 11.901492-5.704847 15.737509zM461.836688 783.511182l-21.835794 14.163759c-5.901566 3.836018-13.081805 3.049142-15.835869-1.672111l-1.278673-2.163907c-2.754064-4.721253-0.196719-11.901492 5.704847-15.73751l21.835795-14.163758c5.901566-3.836018 13.081805-3.049142 15.835869 1.67211l1.278672 2.163907c2.852424 4.819612 0.196719 11.901492-5.704847 15.73751zM511.606562 751.249287l-21.835794 14.163759c-5.901566 3.836018-13.081805 3.049142-15.835869-1.67211l-1.278673-2.163908c-2.754064-4.721253-0.196719-11.901492 5.704847-15.737509l21.835795-14.163759c5.901566-3.836018 13.081805-3.049142 15.835869 1.67211l1.278672 2.163908c2.852424 4.819612 0.295078 11.803132-5.704847 15.737509zM561.474796 718.889033l-21.835795 14.163759c-5.901566 3.836018-13.081805 3.049142-15.835869-1.67211l-1.278672-2.163908c-2.754064-4.721253-0.196719-11.901492 5.704847-15.737509l21.835794-14.163759c5.901566-3.836018 13.081805-3.049142 15.835869 1.67211l1.278673 2.163908c2.754064 4.721253 0.196719 11.901492-5.704847 15.737509zM611.343029 686.528779l-21.835794 14.163759c-5.901566 3.836018-13.081805 3.049142-15.835869-1.67211l-1.278673-2.163908c-2.754064-4.721253-0.196719-11.901492 5.704847-15.73751l21.835795-14.163758c5.901566-3.836018 13.081805-3.049142 15.835869 1.67211l1.278672 2.163908c2.754064 4.819612 0.196719 11.901492-5.704847 15.737509zM661.112903 654.266885l-21.835794 14.163758c-5.901566 3.836018-13.081805 3.049142-15.835869-1.67211l-1.278673-2.163908c-2.754064-4.721253-0.196719-11.901492 5.704847-15.737509l21.835795-14.163759c5.901566-3.836018 13.081805-3.049142 15.835869 1.672111l1.278672 2.163907c2.754064 4.721253 0.295078 11.803132-5.704847 15.73751zM710.981136 621.906631l-21.835794 14.163758c-5.901566 3.836018-13.081805 3.049142-15.835869-1.67211l-1.278673-2.163908c-2.754064-4.721253-0.196719-11.901492 5.704848-15.737509l21.835794-14.163759c5.901566-3.836018 13.081805-3.049142 15.835869 1.672111l1.278673 2.163907c2.754064 4.721253 0.196719 11.901492-5.704848 15.73751zM760.652651 589.546377l-21.835794 14.163758c-5.901566 3.836018-13.081805 3.049142-15.835869-1.67211l-1.278673-2.163908c-2.754064-4.721253-0.196719-11.901492 5.704847-15.737509l21.835795-14.163759c5.901566-3.836018 13.081805-3.049142 15.835869 1.672111l1.278672 2.163907c2.950783 4.819612 0.393438 11.803132-5.704847 15.73751z" fill="#FED15A" p-id="1750"></path><path d="M426.427292 840.559654l-21.835795 14.163759c-5.901566 3.836018-13.081805 3.049142-15.835869-1.672111l-1.278672-2.163907c-2.754064-4.721253-0.196719-11.901492 5.704847-15.73751l21.835794-14.163758c5.901566-3.836018 13.081805-3.049142 15.835869 1.67211l1.278673 2.163908c2.754064 4.819612 0.295078 11.803132-5.704847 15.737509zM476.295525 808.1994L454.459731 822.363159c-5.901566 3.836018-13.081805 3.049142-15.835869-1.672111l-1.278673-2.163907c-2.754064-4.721253-0.196719-11.901492 5.704847-15.73751l21.835795-14.163758c5.901566-3.836018 13.081805-3.049142 15.835869 1.67211l1.278672 2.163908c2.754064 4.819612 0.196719 11.901492-5.704847 15.737509zM526.163759 775.839146l-21.835795 14.163759c-5.901566 3.836018-13.081805 3.049142-15.835869-1.672111l-1.278673-2.163907c-2.754064-4.721253-0.196719-11.901492 5.704848-15.73751l21.835794-14.163758c5.901566-3.836018 13.081805-3.049142 15.835869 1.67211l1.278673 2.163908c2.754064 4.819612 0.196719 11.901492-5.704847 15.737509zM575.835273 743.478892l-21.835794 14.163759c-5.901566 3.836018-13.081805 3.049142-15.835869-1.672111l-1.278673-2.163907c-2.754064-4.721253-0.196719-11.901492 5.704847-15.73751l21.835795-14.163758c5.901566-3.836018 13.081805-3.049142 15.835869 1.67211l1.278672 2.163908c2.852424 4.917972 0.295078 11.901492-5.704847 15.737509zM625.703507 711.118638l-21.835795 14.163759c-5.901566 3.836018-13.081805 3.049142-15.835869-1.672111l-1.278673-2.163907c-2.754064-4.721253-0.196719-11.901492 5.704848-15.73751L614.293812 691.545111c5.901566-3.836018 13.081805-3.049142 15.835869 1.67211l1.278673 2.163908c2.852424 4.917972 0.196719 11.999851-5.704847 15.737509zM675.473381 678.856743L653.637586 693.118862c-5.901566 3.836018-13.081805 3.049142-15.835869-1.672111l-1.278673-2.163907c-2.754064-4.721253-0.196719-11.901492 5.704848-15.73751l21.835794-14.163759c5.901566-3.836018 13.081805-3.049142 15.835869 1.672111l1.278673 2.163907c2.950783 4.721253 0.295078 11.803132-5.704847 15.63915zM725.341614 646.496489l-21.835795 14.163759c-5.901566 3.836018-13.081805 3.049142-15.835869-1.67211l-1.278672-2.163908c-2.754064-4.721253-0.196719-11.901492 5.704847-15.737509l21.835795-14.163759c5.901566-3.836018 13.081805-3.049142 15.835869 1.67211l1.278672 2.163908c2.754064 4.819612 0.196719 11.999851-5.704847 15.737509zM775.209847 614.234595l-21.835794 14.163758c-5.901566 3.836018-13.081805 3.049142-15.835869-1.67211l-1.278673-2.163908c-2.754064-4.721253-0.196719-11.901492 5.704847-15.737509l21.835795-14.163759c5.901566-3.836018 13.081805-3.049142 15.835869 1.672111l1.278673 2.163907c2.754064 4.721253 0.196719 11.901492-5.704848 15.73751z" fill="#FED15A" p-id="1751"></path><path d="M440.886129 865.14951" fill="#FED15A" p-id="1752"></path></svg>