<?xml version="1.0" standalone="no"?><!DOCTYPE svg PUBLIC "-//W3C//DTD SVG 1.1//EN" "http://www.w3.org/Graphics/SVG/1.1/DTD/svg11.dtd"><svg t="1618023285545" class="icon" viewBox="0 0 1024 1024" version="1.1" xmlns="http://www.w3.org/2000/svg" p-id="1574" xmlns:xlink="http://www.w3.org/1999/xlink" width="200" height="200"><defs><style type="text/css"></style></defs><path d="M528.4 433.1s9.5-161.7-26.8-174.5c-36.3-12.7-57.7-11.2-57.7-11.2s-21.1-88.1-65.6-92c-44.4-4.1-55.3 33.2-55.3 33.2s-92.1-77.5-145.3-3.7c-53.2 73.9 12.1 130.6 58.9 136.9-8.4 13.1-36.7 61.6-5.6 97.1 28.3 32.4 75.9 18.8 79.2 21.1 3.3 2.4 6.9 36.8 26 50.5 26.7 18.9 101.4 3.6 101.4 3.6l90.8-61z" fill="#72C156" p-id="1575"></path><path d="M476.7 468.8l72.5-3s61.3-45.8 66.2-62.1c4.9-16.3-14.2-46.9-14.2-46.9s60.3 1.9 70.3-57.4c10-59.2-61.8-64.8-61.8-64.8s84.2-83.8 16.4-130.9c-58.1-40.3-109.6-2-131.4 41.5 0 0-66.9-34.6-98.7 31.9-31.9 66.6 5.6 103 5.6 103s-39.8-18.5-42.3 33.4c-2.5 51.8 41.6 93.1 52.4 101.3 10.7 8.3 65 54 65 54z" fill="#B2DB51" p-id="1576"></path><path d="M699.2 431.5c122.9 60.8 147.4 156.5 98.4 274.2-28.7 69-84 73.8-102 231.7C610.3 823 581 893.7 468.3 832.2s-139.2-156-116.1-241.7c33-123.6 221.9-220.9 347-159z" fill="#E7EBE0" p-id="1577"></path><path d="M528.4 402.2c-1.1 2-3 3.7-5.3 4.6-5 1.9-10.7-0.8-12.6-5.8-0.4-1.2-11-30.9-15.5-71.9-5.9-54.6 2.3-103.4 23.7-141 2.7-4.7 8.6-6.3 13.3-3.7 4.7 2.7 6.3 8.6 3.7 13.3l-1.9 3.5c-44 82.2-5.2 191.9-4.9 193 1.1 2.6 0.8 5.5-0.5 8z" p-id="1578"></path><path d="M405.2 749c-3.7 6.8 6.9 12.5 10.6 5.7 3.6-6.7-6.9-12.4-10.6-5.7zM380.3 701c2 10 5.6 19.5 10.5 28.4 3.7 6.7 13.8 0.5 10.2-6.3-4.4-8.1-7.4-16.6-9.3-25.6-1.5-7.5-13-4-11.4 3.5z" fill="#FFFFFF" p-id="1579"></path></svg>