<?xml version="1.0" standalone="no"?><!DOCTYPE svg PUBLIC "-//W3C//DTD SVG 1.1//EN" "http://www.w3.org/Graphics/SVG/1.1/DTD/svg11.dtd"><svg t="1618023308893" class="icon" viewBox="0 0 1024 1024" version="1.1" xmlns="http://www.w3.org/2000/svg" p-id="2060" xmlns:xlink="http://www.w3.org/1999/xlink" width="200" height="200"><defs><style type="text/css"></style></defs><path d="M482 98h65.9S529 173.4 591 199H448s52-23.1 34-101z" fill="#8BCA58" p-id="2061"></path><path d="M95 555.5a424 370.5 0 1 0 848 0 424 370.5 0 1 0-848 0Z" fill="#DE293A" p-id="2062"></path><path d="M239.2 555.5a279.8 370.5 0 1 0 559.6 0 279.8 370.5 0 1 0-559.6 0Z" fill="#FF5677" p-id="2063"></path><path d="M397.6 247.6c-4.2-4.2-10.6-3.7-14.8 0-18.7 16.3-33.8 36.6-43.9 59.3-2.3 5.2-1.5 11.3 3.8 14.4 4.5 2.6 12 1.4 14.4-3.8 9.5-21.2 23.1-39.8 40.7-55.1 4.1-3.7 3.6-11-0.2-14.8zM328.1 344.3c-13.5 0-13.5 21 0 21s13.5-21 0-21z" fill="#FFFFFF" p-id="2064"></path></svg>