<?xml version="1.0" standalone="no"?><!DOCTYPE svg PUBLIC "-//W3C//DTD SVG 1.1//EN" "http://www.w3.org/Graphics/SVG/1.1/DTD/svg11.dtd"><svg t="1618023303677" class="icon" viewBox="0 0 1024 1024" version="1.1" xmlns="http://www.w3.org/2000/svg" p-id="1906" xmlns:xlink="http://www.w3.org/1999/xlink" width="200" height="200"><defs><style type="text/css"></style></defs><path d="M894.3 397.3c-14.6-75.7-75.5-145.3-162.8-165.4-44-10.1-91.8-7.5-132.8 10.3-33.1 14.4-59.7 38.8-75.9 67.6-17.1-27.7-38.9-53.1-67.9-72.4-18.1-12-39-21.4-61.1-26.2-23.5-5.1-48-4.9-71.6-0.3-45.1 8.8-85.3 32.9-116.7 61.7-29.4 27-51.6 58.9-67.6 93.2-32.5 69.9-35.6 148.1-16 221 21.2 79.1 67.3 152 123.5 216.3 57.6 65.8 129.1 131.3 226 148.9 23.6 4.3 47.9 5.7 71.8 3.1 22.8-2.5 44.4-8 65.4-16 39.9-15.2 75-39.8 104.4-67.4 64.3-60.3 106.7-136.6 136.3-214 15.2-39.8 27.5-80.5 37.2-121.6 10.7-45.6 16.8-92.5 7.8-138.8z" fill="#FC6078" p-id="1907"></path><path d="M895.7 397.3c-6.5-33.5-22-65.8-44.9-93.1 8.9 17.2 15.2 35.4 18.8 53.9 9 46.3 2.9 93.2-7.9 138.9-9.7 41.1-22 81.8-37.2 121.6-29.6 77.4-71.9 153.8-136.3 214-29.5 27.6-64.6 52.1-104.4 67.4-21 8-42.6 13.5-65.4 16-23.9 2.6-48.2 1.2-71.8-3.1-96.9-17.7-168.5-83.1-226-148.9-15.4-17.6-30.1-35.9-43.7-54.8 20.1 33 43.9 64.4 69.7 94 57.6 65.8 129.1 131.3 226 148.9 23.6 4.3 47.9 5.7 71.8 3.1 22.8-2.5 44.4-8 65.4-16 39.9-15.2 75-39.8 104.4-67.4 64.3-60.3 106.7-136.6 136.3-214 15.2-39.8 27.5-80.5 37.2-121.6 10.9-45.7 16.9-92.6 8-138.9z" fill="#DC2F42" p-id="1908"></path><path d="M633.8 435.5c11.2-13.4 18.2-29.2 20.6-46.5 3.3-24.2-2.1-49.7-15.5-70.2 16.2 2.9 32.4 5.4 48.8 7 19 1.8 38.9 2.7 57.8-1.1 10.6-2.1 20.3-6.7 28.5-13.6 9.2-7.7 14.4-19.9 14.7-31.8 0.3-10.9-3.8-22.1-9.9-31-3.4-4.9-7.2-9.6-11.4-13.7-4-4-8.5-7.3-13-10.7-15-11.3-31.8-19.8-49.4-26.2-32.9-11.9-69.5-14.2-103.8-6.7 4.1-7.3 8-14.7 11.7-22.1 4.6-9.3 9.3-18.8 12.2-28.7 3.4-11.4 4-23 1.9-34.7-3.9-21.2-21.4-37.2-42.2-41.3-18.2-3.6-36.8-1.3-54.9 1.8-10.3 1.8-20.1 4.7-29.6 9.3-10.2 4.9-18.4 12.5-25.1 21.5-11 14.6-14.9 33.9-15.6 51.8-0.4 10.1 0.6 20.2 2 30.2 0.3 2.6 0.7 5.1 1.2 7.7-4.6-3.2-9.5-6.1-14.5-8.7-14.9-7.8-31-13.4-47.5-16.5-17-3.3-35.3-5.5-52.6-3.4-11.3 1.3-22.4 3.8-32.3 9.7-8.2 4.9-15.1 11.7-20.2 19.8-4.9 7.7-7.9 17.8-7.4 26.9 0.7 11 4.5 21.5 11.2 30.4 21.7 28.9 55.3 47.2 90.3 54.4 17.2 3.5 34.8 5.2 52.4 6.8 0 0 0 0.1-0.1 0.1-6.9 6-13.7 12.1-20.2 18.5-11.5 11.3-22.2 23.1-31.9 36-4.2 5.6-8.1 11.5-11.2 17.8-3.7 7.3-7.3 15.4-8.7 23.6-1 6.4-1.5 12.8 0.6 19s5.2 11.3 9.7 16.2c6.2 6.7 15 11.4 23.7 13.8 16.6 4.7 34.1 1.5 49.4-5.7 14.3-6.7 26.4-18.3 36.6-30.2 7.3-8.4 14.4-17.2 20.9-26.3 0.4 2.1 0.9 4.2 1.4 6.2 4.4 17.2 12.9 34 26.2 45.9 12.7 11.3 29.3 19.3 46.7 18.8 18.9-0.5 36.6-9.8 48.5-24.1z" fill="#A4CE50" p-id="1909"></path><path d="M232.1 316.7c-4.9-4.5-11.9-4.5-16.8 0-14 13.2-23.9 31.1-27 50.2-1 6.1 1.6 13.1 8.3 14.6 5.7 1.3 13.5-1.7 14.6-8.3 0.7-4.1 1.6-8.1 2.9-12 0.4-1.1 0.7-2.1 1.1-3.2 0.1-0.2 0.5-1.3 0.7-1.8 0.3-0.5 0.7-1.5 0.7-1.6l1.5-3c1.8-3.5 3.9-6.8 6.3-10 0.2-0.2 0.7-0.8 0.9-1.2l1.8-2.1c1.5-1.7 3.1-3.3 4.8-4.8 4.7-4.3 4.8-12.6 0.2-16.8zM201.2 419.4c-0.5-1.5-1.3-2.7-2.5-3.8-1.1-1.2-2.3-2-3.8-2.5-1.4-0.7-2.9-1.1-4.6-1-1.1 0.1-2.1 0.3-3.2 0.4-2 0.6-3.8 1.6-5.2 3.1-0.6 0.8-1.2 1.6-1.9 2.4-1.1 1.9-1.6 3.8-1.6 6v1.9c-0.1 1.6 0.3 3.2 1 4.6 0.5 1.5 1.3 2.7 2.5 3.8 1.1 1.2 2.3 2 3.8 2.5 1.4 0.7 2.9 1.1 4.6 1 1.1-0.1 2.1-0.3 3.2-0.4 2-0.6 3.8-1.6 5.2-3.1 0.6-0.8 1.2-1.6 1.9-2.4 1.1-1.9 1.6-3.8 1.6-6V424c0.1-1.6-0.2-3.2-1-4.6z" fill="#FFFFFF" p-id="1910"></path><path d="M769.7 375.6c-1.9-6.9-9.8-11.8-16.7-9.5-7 2.3-11.5 9.4-9.5 16.7 0.3 1.1 0.5 2.3 0.8 3.4 0 0.2 0.1 0.4 0.1 0.5v0.5c0 1.2 0.1 2.3 0.1 3.5 0 0.2-0.1 1.6-0.1 2.5-0.1 0.6-0.4 2.3-0.4 2.5-0.3 1.1-0.6 2.3-0.9 3.4-0.1 0.3-0.7 1.8-0.9 2.4 0 0.1-0.1 0.2-0.2 0.3-0.3 0.7-0.7 1.4-1.1 2.1-3.5 6.2-1.7 15.1 4.9 18.6 6.4 3.4 14.9 1.8 18.6-4.9 7.2-12.6 9.1-27.7 5.3-42zM742.2 529.8c-6.8-1.5-15.2 2-16.7 9.5l-4.2 20.8c-1.4 7 2 15 9.5 16.7 6.8 1.5 15.2-2 16.7-9.5l4.2-20.8c1.4-6.9-2-15-9.5-16.7zM609.6 525.3c-0.3-0.5-0.6-1.1-0.8-1.6 0-0.1-0.1-0.3-0.1-0.4-0.2-0.7-0.5-1.5-0.7-2.2 0-0.2-0.2-1-0.3-1.5 0-0.4-0.1-1-0.1-1.1 0-0.8-0.1-1.5 0-2.3 0-0.6 0.1-1.3 0.1-1.9 0-0.2 0.1-0.4 0.2-0.8 1.4-7-2-15-9.5-16.7-6.8-1.6-15.2 2.1-16.7 9.5-2.4 11.4-0.9 22.6 4.6 32.9 3.3 6.3 12.6 8.8 18.6 4.9 6.2-4.3 8.3-12.1 4.7-18.8zM696.9 680.3c-7.3 0.3-13.7 6-13.6 13.6 0 1.9 0 3.8-0.2 5.7 0 0.1-0.1 0.9-0.2 1.4-0.1 0.7-0.4 1.9-0.4 1.9-0.3 1.6-0.8 3.3-1.3 4.9-0.3 1-0.6 2-1 3-0.2 0.5-1.3 3.1-0.3 0.8-2.9 6.5-2.1 14.9 4.9 18.6 5.9 3.1 15.5 2.1 18.6-4.9 4.5-10 7.1-20.3 7-31.3 0.1-7.2-6.1-14-13.5-13.7zM583.5 651.9c-0.9-1.3-1.8-2.5-2.6-3.9-0.4-0.7-0.8-1.4-1.1-2-0.1-0.2-0.2-0.4-0.2-0.5-0.1-0.1-0.1-0.3-0.2-0.5-0.3-0.7-0.5-1.5-0.7-2.2-0.4-1.5-0.7-3-1-4.6-1.1-7.1-10.3-11.6-16.7-9.5-7.6 2.5-10.7 9.2-9.5 16.7 1.2 7.2 4.2 14.3 8.5 20.2 4.2 5.7 12 9.2 18.6 4.9 5.7-3.6 9.5-12.4 4.9-18.6zM458.5 488.6c-7.4 0.3-13.6 6-13.6 13.6v27.9c0 7.1 6.3 13.9 13.6 13.6 7.4-0.3 13.6-6 13.6-13.6v-27.9c0-7.1-6.2-14-13.6-13.6zM319.4 480.5c0-0.1 0-0.1-0.1-0.1l0.1 0.1s-0.1-0.1-0.1-0.2c-0.4-0.8-0.3-0.9-0.1-0.3-0.2-0.5-0.4-1.1-0.5-1.6-0.2-0.7-0.4-1.5-0.5-2.2v-0.2-0.2c0.1-1.4 0-2.9 0.1-4.3v-0.1c0.3-0.9 0.5-1.9 0.7-2.8 2-6.8-2.4-15.1-9.5-16.7-7.3-1.7-14.6 2.2-16.7 9.5-3.3 11.1-1.8 22.5 3.2 32.9 3.1 6.4 12.8 8.6 18.6 4.9 6.5-4.4 8.1-11.9 4.8-18.7z" fill="#FFFFFF" opacity=".4" p-id="1911"></path><path d="M319.3 480.3c0-0.1-0.1-0.2-0.1-0.3 0 0.1 0.1 0.2 0.1 0.3zM199.9 552.3l-0.4-0.4-1.2-1.8c-0.5-0.8-1-1.6-1.4-2.4-0.1-0.2-0.5-0.9-0.7-1.5-0.1-0.4-0.3-0.8-0.4-1-0.3-0.9-0.6-1.8-0.8-2.7-0.2-0.7-0.3-1.5-0.5-2.2 0-0.2-0.1-0.3-0.1-0.5v-0.4c-0.7-7.1-5.8-14-13.6-13.6-6.8 0.3-14.4 6-13.6 13.6 1.2 12.2 5.5 22.7 13.5 32.1 4.6 5.4 14.5 5.1 19.3 0 5.2-5.7 4.8-13.4-0.1-19.2zM337.5 665.1c-3.6-6.3-7.3-12.5-10.9-18.8-3.6-6.2-12.5-8.9-18.6-4.9-6.2 4-8.7 12-4.9 18.6 3.6 6.3 7.3 12.5 10.9 18.8 3.6 6.2 12.5 8.9 18.6 4.9 6.3-4 8.8-12.1 4.9-18.6zM463.1 701.4c-0.9-10.2-2.9-20-6.8-29.5-2.7-6.5-9.1-12-16.7-9.5-6.3 2-12.4 9.7-9.5 16.7 1.6 3.9 3 7.9 4.1 12 0.5 1.9 0.9 3.7 1.2 5.6 0.1 0.6 0.2 1.4 0.3 1.6 0.1 1 0.2 2 0.3 2.9 0.6 7.1 5.8 14 13.6 13.6 6.8-0.1 14.2-5.8 13.5-13.4zM328.5 783c-1.9-1.6-3.7-3.3-5.4-5.1-0.9-1-1.8-1.9-2.7-2.9-0.3-0.3-1.4-1.7-1.5-1.8-2.7-3.7-5-7.6-7-11.7-3.1-6.4-12.8-8.7-18.6-4.9-6.6 4.2-8.2 11.8-4.9 18.6 5 10.2 12.2 19.5 20.8 26.9 5.4 4.6 14 5.7 19.3 0 4.7-4.9 5.8-14.1 0-19.1zM471.8 842.7c-3.7-3.1-7.5-6.2-11.2-9.3-2.8-2.4-5.8-4-9.6-4-3.3 0-7.3 1.5-9.6 4-4.6 5-5.8 14.4 0 19.3 3.7 3.1 7.5 6.2 11.2 9.3 2.8 2.4 5.8 4 9.6 4 3.3 0 7.3-1.5 9.6-4 4.6-5.1 5.8-14.4 0-19.3zM594.6 762.3c-7.6 0.3-13.3 6-13.6 13.6 0 1.2-0.1 2.3-0.2 3.5v0.5c0 0.1-0.1 0.3-0.1 0.5-0.5 2.5-1.1 5-1.8 7.4-0.3 1.1-0.7 2.1-1.1 3.1l-0.6 1.2c-1.1 2.3-2.4 4.5-3.8 6.6-3.9 6-1.4 15.3 4.9 18.6 6.8 3.6 14.4 1.5 18.6-4.9 7.2-10.9 10.9-23.7 11.4-36.7 0.2-6.9-6.5-13.7-13.7-13.4zM218.7 661.9c-0.4-0.3-1.3-0.9-2.1-1.6 0-0.1-0.2-0.3-0.5-0.8-0.2-0.4-0.5-0.8-0.7-1.2v-0.1c-0.1-0.5-0.3-0.9-0.4-1.4v-1.9c0.3-7.1-6.5-13.9-13.6-13.6-7.6 0.3-13.3 6-13.6 13.6-0.4 9.7 3.9 20.2 11.6 26.3 3 2.3 5.7 4 9.6 4 3.3 0 7.3-1.5 9.6-4 4.6-5 6.1-14.6 0.1-19.3zM325.7 296.8c-6.2-3.3-15.2-1.9-18.6 4.9-4 7.9-6.2 16.6-5.6 25.5 0.5 7.1 5.9 14 13.6 13.6 6.9-0.3 14.2-6 13.6-13.6-0.1-1.6-0.1-3.2-0.1-4.8v-0.6c0-0.1 0.1-0.3 0.1-0.6 0.3-1.2 0.5-2.3 0.9-3.5 0.1-0.4 0.3-0.8 0.4-1.2 0.1-0.1 0.2-0.4 0.5-1 3.3-6.4 2-15.1-4.8-18.7z" fill="#FFFFFF" opacity=".4" p-id="1912"></path></svg>