<?xml version="1.0" standalone="no"?><!DOCTYPE svg PUBLIC "-//W3C//DTD SVG 1.1//EN" "http://www.w3.org/Graphics/SVG/1.1/DTD/svg11.dtd"><svg t="1618023314116" class="icon" viewBox="0 0 1024 1024" version="1.1" xmlns="http://www.w3.org/2000/svg" p-id="2214" xmlns:xlink="http://www.w3.org/1999/xlink" width="200" height="200"><defs><style type="text/css"></style></defs><path d="M746.7 170.4c7.4 5.9 14.1 12.6 20.2 19.9 81.7 99.1 11 292.4-158 431.6C440 761.2 236.8 793.7 155.1 694.6c-3.1-3.8-5.9-7.7-8.6-11.7 44.8 81.3 117.8 147.6 211.5 182.6 208.4 77.9 440.4-27.8 518.4-236.2 63.2-169 5.5-353.6-129.7-458.9z" fill="#76C55C" p-id="2215"></path><path d="M711.2 467c78.3 115.4 92.2 235.1 68.3 310.1 105.8-127.7 146.5-380-45.3-539.7 46.1 55.1 35.6 138.7-23 229.6zM220.5 735.9c-5.6-2.2-10.9-4.6-16.1-7.2 152.3 121.4 363.3 150 485.9 113-71.3-2.9-179.4-37.7-283.8-107.9-69.9 20.6-135.1 21.9-186 2.1z" fill="#9FE585" p-id="2216"></path><path d="M703.2 146c-99.3-37.1-255.6 6-390.2 117-115.5 95.2-185.1 215.6-191.4 314-2.3 35.5 6 71 22.9 102.3 0.1 0.1 0.1 0.2 0.2 0.3 1.2 2.2 2.5 4.4 3.9 6.4 2 2.9 4.2 5.8 6.5 8.6 16.6 20.2 38.3 34.9 63.6 44.4 99.3 37.2 255.6-6 390.2-117 168.9-139.2 239.7-332.5 158-431.6-6.1-7.4-12.8-14-20.2-19.9-2.2-1.7-4.4-3.4-6.7-5.1-11.1-8-23.4-14.4-36.8-19.4z" fill="#E56E98" p-id="2217"></path><path d="M682.9 170.9c-91-34-234.1 5.5-357.4 107.1C219.7 365.2 156 475.5 150.2 565.6c-2.1 32.5 5.5 65 21 93.7 0 0.1 0.1 0.2 0.2 0.3 1.1 2 2.3 4 3.6 5.9 1.9 2.7 3.8 5.3 5.9 7.8 15.2 18.5 35 31.9 58.3 40.6 91 34 234.1-5.5 357.4-107.1C751.2 479.3 816 302.3 741.1 211.5c-5.6-6.8-11.8-12.8-18.5-18.3-2-1.6-4.1-3.1-6.1-4.7-10.2-7.1-21.4-13-33.6-17.6z" fill="#D70B52" p-id="2218"></path><path d="M660.6 573.7c-16.1 16.1-32.9 31.4-50.4 45.8-26.9 22.2-54.7 41.8-82.7 58.7C628.8 776.7 713.2 829.8 731 817.8c19-13-5.6-112.9-70.4-244.1z" fill="#9FE585" p-id="2219"></path><path d="M592.7 225.5s-17 8-26.8 20.8c-8.7 11.3 7.5 24.9 17 14.2 6.8-7.5 12-18.7 9.8-35zM356.8 449s-10 15.9-11.4 32c-1.2 14.2 19.7 16.9 22 2.8 1.7-10.1 0-22.3-10.6-34.8zM296.8 639s-10 15.9-11.4 32c-1.2 14.2 19.7 16.9 22 2.8 1.7-10.1 0-22.3-10.6-34.8zM365.1 309s-14.2 12.4-20.1 27.3c-5.3 13.3 14 21.9 20.3 9 4.5-9.1 6.4-21.3-0.2-36.3zM646.5 229.2s6.2 17.7 17.9 28.8c10.4 9.8 25.5-4.9 15.9-15.5-6.8-7.5-17.4-13.8-33.8-13.3zM620.8 449s-10 15.9-11.4 32c-1.2 14.2 19.7 16.9 22 2.8 1.7-10.1 0-22.3-10.6-34.8zM460.8 595s-10 15.9-11.4 32c-1.2 14.2 19.7 16.9 22 2.8 1.7-10.1 0-22.3-10.6-34.8zM418.1 267.2s11.4 14.9 26 21.8c12.9 6.1 22.7-12.6 10.3-19.7-8.8-4.9-20.9-7.7-36.3-2.1zM515.1 420.3s-17.9 5.6-29.4 17c-10.1 10 4.1 25.6 14.9 16.4 7.8-6.6 14.5-17 14.5-33.4zM221.1 530.3s-17.9 5.6-29.4 17c-10.1 10 4.1 25.6 14.9 16.4 7.8-6.6 14.5-17 14.5-33.4zM265.1 402.3s-17.9 5.6-29.4 17c-10.1 10 4.1 25.6 14.9 16.4 7.8-6.6 14.5-17 14.5-33.4zM698.1 336.3s-17.9 5.6-29.4 17c-10.1 10 4.1 25.6 14.9 16.4 7.8-6.6 14.5-17 14.5-33.4z" fill="#444B53" p-id="2220"></path><path d="M577 173.3c-22.3 0.9-44.1 8.2-61.9 21.6-4.5 3.4-6.9 9.1-3.8 14.4 2.6 4.5 9.8 7.2 14.4 3.8 15-11.3 32.5-18 51.3-18.8 13.5-0.5 13.5-21.5 0-21zM477.4 218.1c-13.5 0-13.5 21 0 21 13.6 0 13.6-21 0-21z" fill="#FFFFFF" p-id="2221"></path></svg>