<?xml version="1.0" standalone="no"?><!DOCTYPE svg PUBLIC "-//W3C//DTD SVG 1.1//EN" "http://www.w3.org/Graphics/SVG/1.1/DTD/svg11.dtd"><svg t="1618025931842" class="icon" viewBox="0 0 1024 1024" version="1.1" xmlns="http://www.w3.org/2000/svg" p-id="7475" xmlns:xlink="http://www.w3.org/1999/xlink" width="200" height="200"><defs><style type="text/css"></style></defs><path d="M803.1 185.7c-0.3-12.5-1.8-25-0.8-37.5 0.9-10.7-10-20.9-20.4-20.4-11.8 0.5-19.4 9-20.4 20.4-0.9 11.4 0.2 22.7 0.6 34.1 0.2 5.3 0.3 10.7-0.1 16-0.1 0.8-0.1 1.6-0.2 2.5 0.1-0.7 0.2-1.4 0.3-2.2 0.2 0.9-0.6 3.1-0.8 4-0.3 1.3-0.6 2.7-1 4-0.3 1-2.2 5.6-0.3 1.4-4.2 9.8-3.2 22.3 7.3 27.9 8.8 4.7 23.3 3.1 27.9-7.3 6.1-13.8 8.3-27.9 7.9-42.9zM532.4 91.7c-0.3-10.6-1.5-21.1-0.6-31.8 0.8-9-8.5-17.7-17.3-17.3-10 0.4-16.5 7.6-17.3 17.3-0.8 9.6 0.1 19.2 0.5 28.9 0.2 4.5 0.3 9-0.1 13.5 0 0.7-0.1 1.4-0.2 2.1l0.3-1.8c0.2 0.7-0.5 2.6-0.7 3.4-0.3 1.1-0.5 2.3-0.9 3.4-0.3 0.9-1.8 4.8-0.2 1.1-3.6 8.3-2.7 18.9 6.2 23.6 7.5 3.9 19.8 2.6 23.6-6.2 5.1-11.6 7-23.5 6.7-36.2z" fill="#3CB073" p-id="7476"></path><path d="M465.5 848.2c-8.8-4.6-23.4-3.1-27.9 7.3-1 2.4-2 4.8-3 7.1l-0.5-0.5c-0.8-4.9-3.3-9.4-7.6-12.7-7.9-6.1-19.6-5.7-26.8 1.6-2.4 2.4-4.8 4.9-7.2 7.3-0.1 0-0.1 0-0.2 0.1-0.8 0.2-4.9 0.8-4 0.8-1.3 0.1-2.6 0.2-3.9 0.2h-0.7c10-8.2 39.2-16.7 48.6-25.5 7.8-7.3 7.9-21.6 0-28.8-8.4-7.7-20.5-7.8-28.8 0-11.2 10.4-42.3 20.5-54.2 30-1.4 1.1-2.8 2.2-4.2 3.4-0.5 0.4-1 0.8-1.5 1.1-0.2 0.2-0.5 0.4-0.8 0.6-2.9 2.2-5.8 4.4-8.7 6.5-6.3 4.6-12.7 9.1-19.1 13.5-7.3 4.9-12.3 14.1-9.4 23 2.8 8.8 10.4 14.6 19.7 15 8.9 0.3 17.9 0.7 26.8 1.1-10.8 11.1-21.1 23.1-24.2 38.5-1.7 8.2 0.5 16.2 7.3 21.4 6 4.6 16 6.3 22.6 1.6 15.8-11.2 31.3-22.8 46.5-34.8 3 10.7 7.5 20.9 14.4 29.8 5.4 7 13.7 12.4 23 9.4 8.9-2.9 14.4-10.3 15-19.7 0.2-3.3 0.4-6.6 0.7-9.8 0.1-1.5 0.3-3 0.5-4.5 0-0.4 0.1-0.7 0.1-1 0-0.2 0.1-0.4 0.1-0.7 1-6.5 2.2-12.9 3.7-19.3s3.3-12.7 5.4-18.9c0.9-2.8 1.9-5.6 3-8.4 0.6-1.7 1.3-3.3 1.9-5 0.1-0.3 0.2-0.6 0.3-0.8 0.1-0.2 0.2-0.5 0.4-0.9 4.3-9.9 3.2-22.5-7.3-28zM246.2 653.2c-7.5-3.9-19.8-2.7-23.6 6.2-0.9 2-1.7 4-2.5 6.1l-0.4-0.4c-0.6-4.1-2.8-8-6.4-10.8-6.7-5.2-16.6-4.8-22.7 1.4-2 2.1-4.1 4.1-6.1 6.2h-0.2c-0.7 0.2-4.1 0.7-3.4 0.7-1.1 0.1-2.2 0.1-3.3 0.1h-0.6c8.5-7 33.2-14.1 41.2-21.6 6.6-6.2 6.7-18.3 0-24.4-7.1-6.5-17.4-6.6-24.4 0-9.5 8.8-35.8 17.3-46 25.4-1.2 1-2.4 1.9-3.6 2.8-0.4 0.3-0.8 0.6-1.2 1-0.2 0.1-0.4 0.3-0.7 0.5-2.4 1.8-4.9 3.7-7.3 5.5-5.3 3.9-10.8 7.7-16.2 11.5-6.1 4.2-10.4 11.9-7.9 19.5 2.4 7.4 8.8 12.4 16.7 12.7 7.6 0.3 15.2 0.6 22.7 0.9-9.1 9.4-17.8 19.6-20.5 32.7-1.4 6.9 0.4 13.7 6.2 18.2 5.1 3.9 13.6 5.3 19.2 1.4 13.4-9.5 26.5-19.3 39.4-29.5 2.5 9.1 6.4 17.7 12.2 25.2 4.6 5.9 11.6 10.5 19.5 7.9 7.6-2.4 12.2-8.8 12.7-16.7 0.2-2.8 0.4-5.6 0.6-8.3 0.1-1.3 0.3-2.5 0.4-3.8 0-0.3 0.1-0.6 0.1-0.8s0.1-0.4 0.1-0.6c0.8-5.5 1.9-11 3.2-16.4s2.8-10.8 4.5-16.1c0.8-2.4 1.6-4.8 2.5-7.2 0.5-1.4 1.1-2.8 1.6-4.2 0.1-0.3 0.2-0.5 0.3-0.7s0.2-0.5 0.3-0.8c3.4-8.2 2.6-18.9-6.4-23.6z" fill="#FFBE26" p-id="7477"></path><path d="M829.1 271.8c-1.8-17.8-5-39.6-19-52.3-14.7-13.2-35.2-13.5-52.1-4.3-15.8 8.6-25 25.2-28.9 42.3-0.8 3.4-1.3 6.8-1.8 10.2-0.3 1.8-0.5 3.7-0.8 5.5-0.3 2-0.5 4.1-0.8 6.1-1.3 1.8-2.4 3.9-3.2 6.2-4.9 14.7-9.9 29.3-15.3 43.8-1.4 3.6-2.7 7.2-4.2 10.8-0.7 1.8-1.4 3.6-2.2 5.4-0.6 1.4-2.3 5.8-0.8 2-2.9 7.4-6.5 14.6-10 21.7-6.8 13.7-14.6 26.9-23.7 39.3-0.7 0.9-2.5 3.3-2.2 2.9l-2.1 2.7c-2.7 3.3-5.6 6.6-8.5 9.7-5.6 6-11.4 11.7-17.4 17.3-24.5 22.8-49.6 44.9-73.3 68.6-23.6 23.6-46.2 48.1-68 73.4-22.1 25.8-43.7 52.3-63.3 80.1-18.6 26.3-34.8 54.4-45.5 84.9-10.3 29.6-15.2 63.4-7.9 94.3 3.4 14.5 10.5 29 21.4 39.3 14 13.1 31.5 17.1 50 19.2 31.6 3.5 64.6-0.4 94.6-10.7 32.7-11.2 61-29.4 86.4-52.6 24.4-22.3 47.9-46.7 68.5-72.7 21.1-26.5 38-55.3 51.3-86.4 13-30.6 23.3-62.1 32.6-93.9 9.7-33.2 19.5-66.4 27.3-100.1 8.2-35.6 13.1-71.7 15.9-108.1 1.3-17.7 2.2-35.3 2.9-53 0.8-17.1 1.8-34.5 0.1-51.6zM554.4 164.7c-1.5-15.1-4.2-33.6-16.1-44.3-12.4-11.2-29.8-11.4-44.1-3.6-13.4 7.3-21.2 21.3-24.5 35.8-0.6 2.8-1.1 5.7-1.6 8.6-0.2 1.6-0.4 3.1-0.7 4.7-0.2 1.7-0.5 3.4-0.7 5.2-1.1 1.6-2.1 3.3-2.7 5.3-4.2 12.4-8.4 24.9-13 37.2-1.2 3.1-2.3 6.1-3.5 9.2-0.6 1.5-1.2 3-1.8 4.6-0.5 1.2-1.9 4.9-0.7 1.7-2.4 6.3-5.5 12.4-8.5 18.4-5.8 11.6-12.4 22.8-20.1 33.3-0.6 0.8-2.1 2.8-1.9 2.5-0.6 0.8-1.2 1.5-1.8 2.3-2.3 2.8-4.7 5.6-7.2 8.2-4.7 5.1-9.7 9.9-14.7 14.7-20.8 19.4-42.1 38-62.2 58.1-20 20-39.2 40.8-57.6 62.2-18.8 21.9-37 44.4-53.7 67.9-15.8 22.3-29.5 46.1-38.5 72-8.8 25.1-12.9 53.8-6.7 79.9 2.9 12.3 8.9 24.6 18.1 33.3 11.8 11.1 26.7 14.5 42.4 16.3 26.7 3 54.7-0.3 80.2-9 27.7-9.5 51.7-24.9 73.3-44.6 20.7-18.9 40.6-39.6 58.1-61.6 17.9-22.5 32.2-46.8 43.5-73.3 11-25.9 19.8-52.6 27.7-79.6 8.2-28.1 16.5-56.3 23.1-84.8 7-30.1 11.1-60.8 13.5-91.6 1.1-15 1.9-30 2.5-44.9 0.5-14.9 1.4-29.6-0.1-44.1z" fill="#72C156" p-id="7478"></path><path d="M531.7 754.7c-0.5-11.4-9.2-21-21-21-11 0-21.5 9.7-21 21 0.5 11.4 9.2 21 21 21 11 0 21.5-9.7 21-21zM307.7 541.3c-0.5-11.4-9.2-21-21-21-11 0-21.5 9.7-21 21 0.5 11.4 9.2 21 21 21 11 0 21.5-9.6 21-21zM457 390.7c-0.5-11.4-9.2-21-21-21-11 0-21.5 9.7-21 21 0.5 11.4 9.2 21 21 21 11 0 21.5-9.7 21-21zM721 489.3c-0.5-11.4-9.2-21-21-21-11 0-21.5 9.7-21 21 0.5 11.4 9.2 21 21 21 11 0 21.5-9.6 21-21zM593 632c-0.5-11.4-9.2-21-21-21-11 0-21.5 9.7-21 21 0.5 11.4 9.2 21 21 21 11 0 21.5-9.7 21-21zM705 652c-0.5-11.4-9.2-21-21-21-11 0-21.5 9.7-21 21 0.5 11.4 9.2 21 21 21 11 0 21.5-9.7 21-21zM757.3 329.2c-12.2 0-12.2 19 0 19 12.3 0 12.3-19 0-19zM585.3 550.5c-12.2 0-12.2 19 0 19 12.3 0 12.3-19 0-19zM482 684.3c-0.4-1.2-1-2.2-2-3.1-0.9-0.9-1.9-1.6-3.1-2-1.1-0.6-2.4-0.9-3.7-0.8-0.8 0.1-1.7 0.2-2.5 0.3-1.6 0.5-3 1.3-4.2 2.4-0.5 0.6-1 1.3-1.5 1.9-0.9 1.5-1.3 3.1-1.3 4.8v1.3c0 1.3 0.2 2.5 0.8 3.7 0.4 1.2 1 2.2 2 3.1 0.9 0.9 1.9 1.6 3.1 2 1.1 0.6 2.4 0.9 3.7 0.8 0.8-0.1 1.7-0.2 2.5-0.3 1.6-0.5 3-1.3 4.2-2.4 0.5-0.6 1-1.3 1.5-1.9 0.9-1.5 1.3-3.1 1.3-4.8V688c0.1-1.3-0.2-2.5-0.8-3.7zM636 773.4c-0.1-1.3-0.4-2.4-1.1-3.5-1.3-2-3.3-3.8-5.7-4.4-0.8-0.1-1.7-0.2-2.5-0.3-1.7 0-3.3 0.4-4.8 1.3-0.9 0.4-1.8 0.9-2.7 1.3-1.1 0.6-2 1.4-2.7 2.4-0.8 0.9-1.4 2-1.7 3.2-0.4 1.3-0.5 2.5-0.2 3.8 0.1 1.3 0.4 2.4 1.1 3.5 1.3 2 3.3 3.8 5.7 4.4 0.8 0.1 1.7 0.2 2.5 0.3 1.7 0 3.3-0.4 4.8-1.3 0.9-0.4 1.8-0.9 2.7-1.3 1.1-0.6 2-1.4 2.7-2.4 0.8-0.9 1.4-2 1.7-3.2 0.4-1.3 0.5-2.5 0.2-3.8zM446.7 822.5c-12.2 0-12.2 19 0 19s12.2-19 0-19zM516 835.8c-12.2 0-12.2 19 0 19s12.2-19 0-19zM424.7 779c-0.4-1.2-1-2.2-2-3.1-0.9-0.9-1.9-1.6-3.1-2-1.1-0.6-2.4-0.9-3.7-0.8-0.8 0.1-1.7 0.2-2.5 0.3-1.6 0.5-3 1.3-4.2 2.4-0.5 0.6-1 1.3-1.5 1.9-0.9 1.5-1.3 3.1-1.3 4.8v1.3c0 1.3 0.2 2.5 0.8 3.7 0.4 1.2 1 2.2 2 3.1 0.9 0.9 1.9 1.6 3.1 2 1.1 0.6 2.4 0.9 3.7 0.8 0.8-0.1 1.7-0.2 2.5-0.3 1.6-0.5 3-1.3 4.2-2.4 0.5-0.6 1-1.3 1.5-1.9 0.9-1.5 1.3-3.1 1.3-4.8v-1.3c0-1.3-0.2-2.6-0.8-3.7zM626 687c-0.4-1.2-1-2.2-2-3.1-0.6-0.5-1.3-1-1.9-1.5-1.5-0.9-3.1-1.3-4.8-1.3-0.8 0.1-1.7 0.2-2.5 0.3-1.6 0.5-3 1.3-4.2 2.4l-1.3 1.3c-0.9 0.9-1.6 1.9-2 3.1-0.6 1.1-0.9 2.4-0.8 3.7 0 1.3 0.2 2.5 0.8 3.7 0.4 1.2 1 2.2 2 3.1 0.6 0.5 1.3 1 1.9 1.5 1.5 0.9 3.1 1.3 4.8 1.3 0.8-0.1 1.7-0.2 2.5-0.3 1.6-0.5 3-1.3 4.2-2.4l1.3-1.3c0.9-0.9 1.6-1.9 2-3.1 0.6-1.1 0.9-2.4 0.8-3.7 0.1-1.3-0.2-2.6-0.8-3.7zM669.3 550.5c-12.2 0-12.2 19 0 19 12.3 0 12.3-19 0-19zM742.7 534.5c-12.2 0-12.2 19 0 19s12.2-19 0-19zM736 402.5c-12.2 0-12.2 19 0 19s12.2-19 0-19zM778.7 410.5c-12.2 0-12.2 19 0 19s12.2-19 0-19zM789.3 298.5c-12.2 0-12.2 19 0 19 12.3 0 12.3-19 0-19zM473.3 271.8c-12.2 0-12.2 19 0 19 12.3 0 12.3-19 0-19zM527.3 284.3c-0.4-1.2-1-2.2-2-3.1-0.9-0.9-1.9-1.6-3.1-2-1.1-0.6-2.4-0.9-3.7-0.8-2.5 0.1-5 0.9-6.7 2.8s-2.8 4.1-2.8 6.7v2.7c0 1.3 0.2 2.5 0.8 3.7 0.4 1.2 1 2.2 2 3.1 0.9 0.9 1.9 1.6 3.1 2 1.1 0.6 2.4 0.9 3.7 0.8 2.5-0.1 5-0.9 6.7-2.8s2.8-4.1 2.8-6.7V288c0.1-1.3-0.2-2.5-0.8-3.7zM502.6 394.9c-0.3-1.2-0.9-2.3-1.7-3.2-0.7-1-1.6-1.8-2.7-2.4-2.2-1.2-4.9-1.7-7.3-1-2.3 0.7-4.6 2.2-5.7 4.4-0.5 0.9-0.9 1.8-1.4 2.7-0.7 1.1-1.1 2.3-1.1 3.5-0.3 1.3-0.2 2.5 0.2 3.8 0.3 1.2 0.9 2.3 1.7 3.2 0.7 1 1.6 1.8 2.7 2.4 2.2 1.2 4.9 1.7 7.3 1 2.3-0.7 4.6-2.2 5.7-4.4 0.5-0.9 0.9-1.8 1.4-2.7 0.7-1.1 1.1-2.3 1.1-3.5 0.3-1.3 0.2-2.6-0.2-3.8zM435.8 492.1c-0.5-1.6-1.3-3-2.4-4.2-0.6-0.5-1.3-1-1.9-1.5-1.5-0.9-3.1-1.3-4.8-1.3h-1.3c-1.3 0-2.5 0.2-3.7 0.8-1.2 0.4-2.2 1-3.1 2-0.9 0.9-1.6 1.9-2 3.1-0.6 1.1-0.9 2.4-0.8 3.7 0.1 0.8 0.2 1.7 0.3 2.5 0.5 1.6 1.3 3 2.4 4.2 0.6 0.5 1.3 1 1.9 1.5 1.5 0.9 3.1 1.3 4.8 1.3h1.3c1.3 0 2.5-0.2 3.7-0.8 1.2-0.4 2.2-1 3.1-2 0.9-0.9 1.6-1.9 2-3.1 0.6-1.1 0.9-2.4 0.8-3.7 0-0.8-0.2-1.6-0.3-2.5zM347.8 465.5c-0.5-1.6-1.3-3-2.4-4.2l-1.3-1.3c-0.9-0.9-1.9-1.6-3.1-2-1.1-0.6-2.4-0.9-3.7-0.8-1.3 0-2.5 0.2-3.7 0.8-1.2 0.4-2.2 1-3.1 2-0.5 0.6-1 1.3-1.5 1.9-0.9 1.5-1.3 3.1-1.3 4.8 0.1 0.8 0.2 1.7 0.3 2.5 0.5 1.6 1.3 3 2.4 4.2l1.3 1.3c0.9 0.9 1.9 1.6 3.1 2 1.1 0.6 2.4 0.9 3.7 0.8 1.3 0 2.5-0.2 3.7-0.8 1.2-0.4 2.2-1 3.1-2 0.5-0.6 1-1.3 1.5-1.9 0.9-1.5 1.3-3.1 1.3-4.8 0-0.8-0.2-1.7-0.3-2.5zM322 427c-0.4-1.2-1-2.2-2-3.1-1.8-1.7-4.2-2.9-6.7-2.8s-4.9 1-6.7 2.8l-2.7 2.7c-0.9 0.9-1.6 1.9-2 3.1-0.6 1.1-0.9 2.4-0.8 3.7 0 1.3 0.2 2.5 0.8 3.7 0.4 1.2 1 2.2 2 3.1 1.8 1.7 4.2 2.9 6.7 2.8s4.9-1 6.7-2.8l2.7-2.7c0.9-0.9 1.6-1.9 2-3.1 0.6-1.1 0.9-2.4 0.8-3.7 0.1-1.3-0.2-2.6-0.8-3.7zM377.3 349.2c-12.2 0-12.2 19 0 19 12.3 0 12.3-19 0-19zM385.3 435.8c-12.2 0-12.2 19 0 19 12.3 0 12.3-19 0-19zM341.3 598.5c-12.2 0-12.2 19 0 19 12.3 0 12.3-19 0-19zM214.7 622.5c-12.2 0-12.2 19 0 19s12.2-19 0-19zM384 545.2c-12.2 0-12.2 19 0 19s12.2-19 0-19zM257.3 497.2c-12.2 0-12.2 19 0 19 12.3 0 12.3-19 0-19zM224.7 551c-0.4-1.2-1-2.2-2-3.1-0.9-0.9-1.9-1.6-3.1-2-1.1-0.6-2.4-0.9-3.7-0.8-0.8 0.1-1.7 0.2-2.5 0.3-1.6 0.5-3 1.3-4.2 2.4-0.5 0.6-1 1.3-1.5 1.9-0.9 1.5-1.3 3.1-1.3 4.8v1.3c0 1.3 0.2 2.5 0.8 3.7 0.4 1.2 1 2.2 2 3.1 0.9 0.9 1.9 1.6 3.1 2 1.1 0.6 2.4 0.9 3.7 0.8 0.8-0.1 1.7-0.2 2.5-0.3 1.6-0.5 3-1.3 4.2-2.4 0.5-0.6 1-1.3 1.5-1.9 0.9-1.5 1.3-3.1 1.3-4.8v-1.3c0-1.3-0.2-2.6-0.8-3.7zM300.7 648.3c-0.4-1.2-1-2.2-2-3.1-0.6-0.5-1.3-1-1.9-1.5-1.5-0.9-3.1-1.3-4.8-1.3-0.8 0.1-1.7 0.2-2.5 0.3-1.6 0.5-3 1.3-4.2 2.4l-1.3 1.3c-0.9 0.9-1.6 1.9-2 3.1-0.6 1.1-0.9 2.4-0.8 3.7 0 1.3 0.2 2.5 0.8 3.7 0.4 1.2 1 2.2 2 3.1 0.6 0.5 1.3 1 1.9 1.5 1.5 0.9 3.1 1.3 4.8 1.3 0.8-0.1 1.7-0.2 2.5-0.3 1.6-0.5 3-1.3 4.2-2.4l1.3-1.3c0.9-0.9 1.6-1.9 2-3.1 0.6-1.1 0.9-2.4 0.8-3.7 0-1.3-0.2-2.5-0.8-3.7z" fill="#3CB073" p-id="7479"></path></svg>