<?xml version="1.0" standalone="no"?><!DOCTYPE svg PUBLIC "-//W3C//DTD SVG 1.1//EN" "http://www.w3.org/Graphics/SVG/1.1/DTD/svg11.dtd"><svg t="1617895116328" class="icon" viewBox="0 0 1024 1024" version="1.1" xmlns="http://www.w3.org/2000/svg" p-id="2797" xmlns:xlink="http://www.w3.org/1999/xlink" width="200" height="200"><defs><style type="text/css"></style></defs><path d="M938.666667 511.829333v213.76a213.418667 213.418667 0 0 1-213.333334 213.333334H298.666667a213.418667 213.418667 0 0 1-213.333334-213.333334v-213.76a214.101333 214.101333 0 0 1 68.266667-156.586666l242.346667-224.426667a170.026667 170.026667 0 0 1 232.106666 0l242.346667 224.426667a214.101333 214.101333 0 0 1 68.266667 156.586666z" fill="#34D399" p-id="2798"></path><path d="M660.053333 640.298667a32.213333 32.213333 0 0 1-32 32H395.946667a32 32 0 1 1 0-64h232.106666a31.957333 31.957333 0 0 1 32 32z" fill="#030835" p-id="2799"></path></svg>