<?xml version="1.0" standalone="no"?><!DOCTYPE svg PUBLIC "-//W3C//DTD SVG 1.1//EN" "http://www.w3.org/Graphics/SVG/1.1/DTD/svg11.dtd"><svg t="1617954358393" class="icon" viewBox="0 0 1024 1024" version="1.1" xmlns="http://www.w3.org/2000/svg" p-id="9098" xmlns:xlink="http://www.w3.org/1999/xlink" width="200" height="200"><defs><style type="text/css"></style></defs><path d="M853.333333 938.666667h-128v-64h128a21.333333 21.333333 0 0 0 21.333334-21.333334v-138.666666a32 32 0 0 1 64 0V853.333333a85.333333 85.333333 0 0 1-85.333334 85.333334z m53.333334-597.333334a32 32 0 0 1-32-32V170.666667a21.333333 21.333333 0 0 0-21.333334-21.333334h-138.666666a32 32 0 0 1 0-64H853.333333a85.333333 85.333333 0 0 1 85.333334 85.333334v138.666666a32 32 0 0 1-32 32z m-597.333334-192H170.666667a21.333333 21.333333 0 0 0-21.333334 21.333334v138.666666a32 32 0 1 1-64 0V170.666667a85.333333 85.333333 0 0 1 85.333334-85.333334h138.666666a32 32 0 0 1 0 64z m-192 533.333334A32 32 0 0 1 149.333333 714.666667V853.333333a21.333333 21.333333 0 0 0 21.333334 21.333334h128v64H170.666667a85.333333 85.333333 0 0 1-85.333334-85.333334v-138.666666A32 32 0 0 1 117.333333 682.666667z" fill="#ffffff" p-id="9099"></path><path d="M213.333333 480m32 0l533.333334 0q32 0 32 32l0 0q0 32-32 32l-533.333334 0q-32 0-32-32l0 0q0-32 32-32Z" fill="#ffffff" p-id="9100"></path></svg>