<?xml version="1.0" standalone="no"?><!DOCTYPE svg PUBLIC "-//W3C//DTD SVG 1.1//EN" "http://www.w3.org/Graphics/SVG/1.1/DTD/svg11.dtd"><svg t="1617895319589" class="icon" viewBox="0 0 1024 1024" version="1.1" xmlns="http://www.w3.org/2000/svg" p-id="3668" xmlns:xlink="http://www.w3.org/1999/xlink" width="200" height="200"><defs><style type="text/css"></style></defs><path d="M938.666667 506.666667v176.213333a213.12 213.12 0 0 1-213.333334 213.333333H298.666667a213.418667 213.418667 0 0 1-213.333334-213.333333v-176.213333a213.418667 213.418667 0 0 1 213.333334-213.333334h426.666666a213.12 213.12 0 0 1 213.333334 213.333334z" fill="#34D399" p-id="3669"></path><path d="M659.925333 594.986667a32.213333 32.213333 0 0 1-32 32h-232.106666a32 32 0 0 1 0-64h232.106666a31.957333 31.957333 0 0 1 32 32z" fill="#030835" p-id="3670"></path><path d="M725.162667 261.376a211.328 211.328 0 0 1 95.061333 23.253333l-22.912-43.306666a213.333333 213.333333 0 0 0-288.426667-88.661334l-205.226666 108.714667z" fill="#34D399" p-id="3671"></path></svg>